<svg id="Layer_1" data-name="Layer 1" xmlns="http://www.w3.org/2000/svg" viewBox="0 0 53.65 48.71"><defs><style>.cls-1{fill:#fff;}</style></defs><path class="cls-1" d="M52.7,6.76a5.36,5.36,0,0,0-.13-1.13,4.5,4.5,0,0,0-4.68-3.79H13A5.78,5.78,0,0,0,11.65,2,4.51,4.51,0,0,0,8.21,6.51V16.57a2.06,2.06,0,0,1-1.57,2.14,4.18,4.18,0,0,1-2.35,0,2.17,2.17,0,0,1-1.54-1.29,1,1,0,0,0-1.45-.58,1,1,0,0,0-.46,1.42,4.32,4.32,0,0,0,1.61,1.9A5.6,5.6,0,0,0,5.54,21h9.7V46.7a2.69,2.69,0,0,0,0,.57,1,1,0,0,0,1.31.74,1.7,1.7,0,0,0,.62-.4c1.42-1.37,2.82-2.74,4.22-4.11l.35-.32,5.15,4.54a1.12,1.12,0,0,0,1.69,0l4-3.47,1.25-1.07.51.47,4.34,4a1.09,1.09,0,0,0,1.65,0l.84-.73,4.43-3.86.51.44,4.69,4.18a1.09,1.09,0,0,0,1.23.21,1,1,0,0,0,.61-1c0-.18,0-.36,0-.53C52.71,31.38,52.71,21.81,52.7,6.76ZM15.22,18.87H9.78c0-.11.06-.21.1-.29a4.49,4.49,0,0,0,.47-2c0-9.75,0-.3,0-10A2.44,2.44,0,0,1,12.2,4.06,2.39,2.39,0,0,1,15,5.42a2.53,2.53,0,0,1,.21,1c0,10.41,0,1.62,0,12C15.24,18.57,15.22,18.7,15.22,18.87Zm35.39,25.9c-.18-.14-.3-.23-.41-.33l-3.71-3.29a1.13,1.13,0,0,0-1.75,0l-4.82,4.24-.32.27-1.21-1.11-3.56-3.32a1.2,1.2,0,0,0-1.87,0l-4.72,4.07-.46.39-.35-.29L22.72,41.2a1.18,1.18,0,0,0-1.92,0l-3,2.92-.4.37v-.6c0-13.92,0-22.36,0-36.29a6.52,6.52,0,0,0-.72-3.73H47.8a2.6,2.6,0,0,1,2.52,1.32,2.44,2.44,0,0,1,.3,1.09c0,14.51,0,23.54,0,38.06C50.63,44.48,50.62,44.58,50.61,44.77Z"/><path class="cls-1" d="M35.72,12.73a1.16,1.16,0,0,0-1.15-1.16H26.3a1.16,1.16,0,1,0,0,2.31h8.27A1.16,1.16,0,0,0,35.72,12.73Z"/><path class="cls-1" d="M41.66,11.57H38.88a1.16,1.16,0,1,0,0,2.31h2.78a1.16,1.16,0,1,0,0-2.31Z"/><path class="cls-1" d="M34.57,21.3H26.3a1.16,1.16,0,1,0,0,2.31h8.27a1.16,1.16,0,0,0,0-2.31Z"/><path class="cls-1" d="M41.66,21.3H38.88a1.16,1.16,0,1,0,0,2.31h2.78a1.16,1.16,0,1,0,0-2.31Z"/><path class="cls-1" d="M41.66,16.29H33.39a1.15,1.15,0,0,0,0,2.3h8.27a1.15,1.15,0,1,0,0-2.3Z"/><path class="cls-1" d="M26.3,16.29a1.15,1.15,0,1,0,0,2.3h2.78a1.15,1.15,0,1,0,0-2.3Z"/></svg>