<svg id="Layer_1" data-name="Layer 1" xmlns="http://www.w3.org/2000/svg" viewBox="0 0 50.82 49.59"><defs><style>.cls-1{fill:#46c7f4;}</style></defs><path class="cls-1" d="M47.1,29.48,38.34,27c1-.5,1.79-.92,2.61-1.36a3,3,0,0,0,1.4-4.17c-.74-1.56-1.5-3.12-2.24-4.69-.17-.35-.33-.7-.49-1,1.27-1,1.4-1.51.71-2.94L38.26,8.52a1.57,1.57,0,0,0-1.41-1,6.65,6.65,0,0,0-1.12.15c-.08-.14-.17-.32-.26-.5q-1.14-2.4-2.29-4.79A2.84,2.84,0,0,0,29.2,1L3,14.12A2.91,2.91,0,0,0,1.6,18.18q4.61,9.66,9.26,19.31A3.36,3.36,0,0,0,12,38.74a2.69,2.69,0,0,0,2.78.06l2.32-1.17c-.08.32-.12.54-.18.75a3.24,3.24,0,0,0,2.41,4.24l22.75,6.32a3.15,3.15,0,0,0,4.11-2.38L49.59,33.8A3.25,3.25,0,0,0,47.1,29.48ZM36.31,8.82a.57.57,0,0,1,.9.31c.72,1.53,1.46,3.06,2.2,4.6.05.1.09.21.18.43a3.32,3.32,0,0,1-.61.5c-1.45.75-2.91,1.47-4.37,2.2l-6,3c-.61.3-.73.26-1-.35q-1.08-2.22-2.14-4.46c-.24-.5-.18-.7.3-.94C29.26,12.36,32.79,10.6,36.31,8.82ZM17.16,36.21c-.94.52-1.9,1-2.86,1.47a1.65,1.65,0,0,1-2.42-.82L2.73,17.72a1.72,1.72,0,0,1,.86-2.55l26-13A1.67,1.67,0,0,1,32.14,3c.83,1.75,1.67,3.49,2.53,5.29L27.46,11.9,25.18,13a1.74,1.74,0,0,0-.87,2.51q1.11,2.32,2.23,4.65A1.66,1.66,0,0,0,29,21l8.94-4.48.55-.26c.08.15.16.29.23.44Q40,19.34,41.22,22a1.77,1.77,0,0,1-.89,2.66c-1.11.59-2.22,1.18-3.35,1.74a1.31,1.31,0,0,1-.76.07c-.84-.2-1.66-.45-2.6-.71l-.48-.13.63-.32a.52.52,0,0,0-.47-.92l-1.64.84-.47-.13c-2.22-.64-4.45-1.25-6.68-1.87a3.16,3.16,0,0,0-4.18,2.39l-1.65,6.2-.42.21a.51.51,0,0,0,.11,1c-.24.88-.47,1.76-.71,2.64A1.14,1.14,0,0,1,17.16,36.21Zm28.07,9.32c-.08.28-.15.56-.23.83a1.93,1.93,0,0,1-2.53,1.42l-21.57-6c-.53-.14-1-.28-1.57-.45A1.92,1.92,0,0,1,18,39.08c.71-2.82,1.47-5.62,2.23-8.49l27,7.5C46.53,40.6,45.88,43.06,45.23,45.53Zm2.28-8.62L20.57,29.42c.21-.78.4-1.51.6-2.29l26.95,7.49Zm.88-3.48L21.56,26a1.87,1.87,0,0,1,2.49-1.63l14.3,4c2.89.8,5.77,1.59,8.65,2.4A2,2,0,0,1,48.39,33.43Z"/><path class="cls-1" d="M43.14,49.39A4.16,4.16,0,0,1,42,49.23L19.26,42.91a3.55,3.55,0,0,1-2.62-4.61l0-.12-1.75.89A3,3,0,0,1,11.85,39a3.8,3.8,0,0,1-1.26-1.37C7.53,31.3,4.47,24.88,1.33,18.3a3.18,3.18,0,0,1,1.51-4.44Q16,7.26,29.06.7A3.25,3.25,0,0,1,31.57.49a3.24,3.24,0,0,1,1.88,1.74l1.46,3L35.74,7l.15.3.15,0a3.81,3.81,0,0,1,.82-.09,1.85,1.85,0,0,1,1.67,1.19l2.07,4.32c.72,1.49.6,2.18-.61,3.16h0c.12.27.25.54.38.81l.8,1.68,1.44,3A3.25,3.25,0,0,1,41.09,26l-1.62.85-.31.16.94.26,7.08,2h0a3.54,3.54,0,0,1,2.7,4.69L46.49,46.64A3.68,3.68,0,0,1,44.82,49,3.34,3.34,0,0,1,43.14,49.39ZM17.54,37.07l-.2.91c0,.18-.08.33-.12.48a3,3,0,0,0,2.2,3.87l22.75,6.32a2.84,2.84,0,0,0,3.74-2.16L49.3,33.72A3,3,0,0,0,47,29.77l-7.08-2-2.41-.67,1.66-.87,1.62-.84a2.67,2.67,0,0,0,1.27-3.78l-1.44-3L39.84,17l-.39-.81-.21-.46.19-.14c1.16-.88,1.25-1.27.63-2.57L38,8.65a1.25,1.25,0,0,0-1.14-.85,4.17,4.17,0,0,0-.7.08L35.77,8l-.21,0-.15-.3c-.07-.12-.14-.26-.21-.4l-.84-1.76c-.48-1-1-2-1.45-3a2.69,2.69,0,0,0-1.54-1.43,2.58,2.58,0,0,0-2,.18L3.11,14.39a2.6,2.6,0,0,0-1.24,3.66C5,24.62,8.07,31,11.13,37.36a2.94,2.94,0,0,0,1,1.12,2.33,2.33,0,0,0,2.47.05Zm25.6,11.11a2.9,2.9,0,0,1-.75-.11L23.78,42.9,20.43,42c-.4-.1-.8-.21-1.2-.35A2.23,2.23,0,0,1,17.73,39c.5-2,1-4,1.58-6L20,30.22l27.52,7.66-2.08,7.86c-.06.24-.12.47-.19.71A2.22,2.22,0,0,1,43.14,48.18ZM20.46,31l-.57,2.17c-.54,2-1.07,4-1.58,6a1.64,1.64,0,0,0,1.12,1.91c.38.12.76.23,1.15.33l3.36.94,18.61,5.16a1.63,1.63,0,0,0,2.16-1.21c.07-.23.13-.46.19-.7l1.93-7.28Zm-7.09,7.26a1.9,1.9,0,0,1-.58-.09A2.14,2.14,0,0,1,11.61,37L2.46,17.85a2,2,0,0,1,1-3l26-13a2.13,2.13,0,0,1,1.69-.21,2.18,2.18,0,0,1,1.23,1.22l2.1,4.4.56,1.16-8.23,4.13-1.52.76a1.44,1.44,0,0,0-.74,2.11q1.11,2.32,2.23,4.64a1.52,1.52,0,0,0,.85.86,1.55,1.55,0,0,0,1.2-.16L35,17.71l3.63-1.82.22.39c.06.11.11.21.16.32q1.26,2.61,2.51,5.24a2.07,2.07,0,0,1-1,3.06l-.63.33c-.91.48-1.81.95-2.73,1.41a1.56,1.56,0,0,1-1,.09c-.61-.14-1.21-.32-1.85-.5l-2-.55L33.63,25a.21.21,0,0,0-.19-.38l-1.75.88-.58-.15q-2.85-.83-5.72-1.6l-1-.27a3.15,3.15,0,0,0-2.42.2,3.11,3.11,0,0,0-1.39,2L18.93,32l-.53.27a.22.22,0,0,0-.1.29.22.22,0,0,0,.14.11l.29.08-.3,1.12L18,35.67a1.42,1.42,0,0,1-.65.8h0c-.84.47-1.71.9-2.55,1.32l-.32.16A2.38,2.38,0,0,1,13.37,38.22ZM30.62,2.15a2,2,0,0,0-.86.23l-26,13.06A1.42,1.42,0,0,0,3,17.59l9.15,19.14a1.57,1.57,0,0,0,.84.83,1.54,1.54,0,0,0,1.18-.15l.31-.16c.84-.41,1.7-.84,2.53-1.3a.82.82,0,0,0,.36-.44l.48-1.81.16-.59a.81.81,0,0,1,.12-1.38l.29-.15L20,25.51a3.7,3.7,0,0,1,1.67-2.34,3.75,3.75,0,0,1,2.88-.26l1,.27,5.73,1.6.34.1,1.54-.79a.82.82,0,0,1,1.1.36.81.81,0,0,1-.3,1.06l.5.14c.63.18,1.23.35,1.83.49a.88.88,0,0,0,.56,0c.91-.45,1.81-.92,2.71-1.4l.63-.33A1.48,1.48,0,0,0,41,22.1q-1.25-2.62-2.51-5.24l-.09-.18-3.12,1.56-6.1,3.06a2,2,0,0,1-2.86-1Q25.15,18,24,15.68a2,2,0,0,1,1-2.91L26.57,12l7.7-3.86L34,7.52c-.71-1.49-1.41-2.94-2.1-4.4A1.65,1.65,0,0,0,31,2.21,1,1,0,0,0,30.62,2.15Zm17.1,35.13L20.21,29.63,21,26.75l.3.09,27.22,7.57ZM20.94,29.21l26.35,7.33.46-1.71L21.39,27.5Zm27.64,4.58L21.25,26.2V26a2,2,0,0,1,.86-1.58,2.35,2.35,0,0,1,2-.32l11,3,5.64,1.57,6.35,1.76a2.43,2.43,0,0,1,1.52,1.19,2.41,2.41,0,0,1,.08,1.92Zm-26.69-8,26.3,7.31a1.7,1.7,0,0,0-.13-1.18A1.79,1.79,0,0,0,46.92,31l-6.35-1.77-5.64-1.56-11-3a1.74,1.74,0,0,0-1.5.23A1.49,1.49,0,0,0,21.89,25.75Zm6.17-5.39a.69.69,0,0,1-.2,0c-.27-.09-.41-.36-.56-.67q-1.08-2.22-2.14-4.46c-.31-.65-.19-1,.44-1.34L36.18,8.55a1,1,0,0,1,.76-.1.94.94,0,0,1,.54.55c.51,1.08,1,2.15,1.54,3.22l.66,1.38.11.25.17.4-.18.14-.16.15a2.22,2.22,0,0,1-.5.39l-3.38,1.7-2.39,1.2-4.63,2.32A1.49,1.49,0,0,1,28.06,20.36ZM36.7,9a.64.64,0,0,0-.25.08L25.87,14.4c-.32.16-.34.17-.17.54q1.07,2.24,2.14,4.46c.14.29.2.35.22.36s.11,0,.39-.15l4.63-2.32,2.39-1.2c1.13-.56,2.26-1.12,3.37-1.7a1.39,1.39,0,0,0,.37-.29l0,0h0c0-.09-.06-.16-.09-.22l-.66-1.38c-.52-1.07-1-2.15-1.54-3.23-.07-.13-.13-.21-.19-.23Z"/><path class="cls-1" d="M23.47,8.34l1.68-.85a.51.51,0,0,0,.22-.69h0a.53.53,0,0,0-.69-.23L23,7.43a.51.51,0,0,0,.47.91Z"/><path class="cls-1" d="M23.24,8.7a.8.8,0,0,1-.73-.45.8.8,0,0,1,.36-1.09l1.68-.85a.79.79,0,0,1,.62,0,.82.82,0,0,1,.47.41.8.8,0,0,1-.36,1.09l-1.68.85A.77.77,0,0,1,23.24,8.7Zm1.67-1.88-.09,0-1.68.85a.24.24,0,0,0-.11.13.22.22,0,0,0,.3.26L25,7.22a.19.19,0,0,0,.11-.12.22.22,0,0,0,0-.16A.2.2,0,0,0,25,6.83Z"/><path class="cls-1" d="M19,10.61l1.67-.86a.51.51,0,1,0-.46-.91l-1.68.85a.53.53,0,0,0-.23.69A.54.54,0,0,0,19,10.61Z"/><path class="cls-1" d="M18.78,11a.73.73,0,0,1-.25,0,.77.77,0,0,1-.47-.41.8.8,0,0,1,.35-1.09l1.68-.85a.83.83,0,0,1,1.1.36A.81.81,0,0,1,20.83,10l-1.68.85A.78.78,0,0,1,18.78,11Zm1.68-1.88-.1,0L18.69,10a.21.21,0,0,0-.1.28.24.24,0,0,0,.13.11.22.22,0,0,0,.16,0l1.68-.85a.22.22,0,0,0,.09-.29A.21.21,0,0,0,20.46,9.08Z"/><path class="cls-1" d="M15.77,11.1,14.1,12a.51.51,0,0,0-.23.69.52.52,0,0,0,.69.23L16.24,12a.51.51,0,0,0,.23-.69A.52.52,0,0,0,15.77,11.1Z"/><path class="cls-1" d="M14.33,13.22A.81.81,0,0,1,14,11.68l1.68-.85a.79.79,0,0,1,.62-.05.77.77,0,0,1,.47.41.8.8,0,0,1-.35,1.09l-1.68.85A.81.81,0,0,1,14.33,13.22ZM16,11.34l-.1,0-1.68.86a.21.21,0,1,0,.2.38l1.67-.85a.2.2,0,0,0,.11-.13.22.22,0,0,0,0-.16.24.24,0,0,0-.13-.11Z"/><path class="cls-1" d="M11.32,13.36l-1.68.85a.52.52,0,0,0,.47.92l1.68-.85a.52.52,0,0,0,.22-.7A.51.51,0,0,0,11.32,13.36Z"/><path class="cls-1" d="M9.88,15.48A.81.81,0,0,1,9.15,15a.83.83,0,0,1,.36-1.1l1.68-.85a.79.79,0,0,1,.62-.05.82.82,0,0,1,.47.41.81.81,0,0,1-.36,1.09l-1.67.85A.84.84,0,0,1,9.88,15.48Zm1.67-1.88a.16.16,0,0,0-.09,0l-1.68.85a.22.22,0,0,0-.11.12.25.25,0,0,0,0,.17.23.23,0,0,0,.29.09L11.65,14a.24.24,0,0,0,.11-.13.22.22,0,0,0,0-.16.24.24,0,0,0-.13-.11Z"/><path class="cls-1" d="M27.92,6.08l1.68-.85a.52.52,0,1,0-.47-.92l-1.67.86a.5.5,0,0,0-.23.69A.51.51,0,0,0,27.92,6.08Z"/><path class="cls-1" d="M27.69,6.44a.69.69,0,0,1-.25,0,.81.81,0,0,1-.12-1.5L29,4.05a.81.81,0,0,1,1.09.35.82.82,0,0,1-.35,1.1l-1.68.85A.81.81,0,0,1,27.69,6.44Zm1.68-1.88-.1,0-1.68.85a.22.22,0,0,0,.2.39L29.46,5a.22.22,0,0,0,.1-.29.22.22,0,0,0-.13-.1Z"/><path class="cls-1" d="M6.87,15.62l-1.68.85a.53.53,0,0,0-.23.69.52.52,0,0,0,.7.23l1.67-.85a.51.51,0,1,0-.46-.92Z"/><path class="cls-1" d="M5.42,17.74a.73.73,0,0,1-.25,0,.78.78,0,0,1-.47-.4.82.82,0,0,1,.35-1.1l1.68-.85a.84.84,0,0,1,.62,0,.81.81,0,0,1,.12,1.5l-1.68.86A.91.91,0,0,1,5.42,17.74ZM7.1,15.86l-.1,0-1.67.85a.19.19,0,0,0-.11.12.25.25,0,0,0,0,.17.23.23,0,0,0,.29.09l1.68-.85a.19.19,0,0,0,.1-.13.18.18,0,0,0,0-.16.22.22,0,0,0-.12-.11Z"/><path class="cls-1" d="M36.54,23.87,38.22,23a.53.53,0,0,0,.23-.69.52.52,0,0,0-.7-.23L36.08,23a.51.51,0,0,0,.46.92Z"/><path class="cls-1" d="M36.31,24.23a1.17,1.17,0,0,1-.26,0,.86.86,0,0,1-.47-.41.83.83,0,0,1,.36-1.1l1.68-.85a.82.82,0,0,1,.73,1.46l-1.67.85A.81.81,0,0,1,36.31,24.23ZM38,22.34a.17.17,0,0,0-.1,0l-1.68.85a.25.25,0,0,0-.11.12.25.25,0,0,0,0,.17.22.22,0,0,0,.12.11.26.26,0,0,0,.17,0l1.67-.85a.25.25,0,0,0,.11-.12.25.25,0,0,0,0-.17A.24.24,0,0,0,38,22.34Z"/><path class="cls-1" d="M15.49,33.41l-1.68.85a.52.52,0,0,0-.23.69.54.54,0,0,0,.7.23L16,34.32a.51.51,0,1,0-.46-.91Z"/><path class="cls-1" d="M14,35.53a.73.73,0,0,1-.25,0,.78.78,0,0,1-.47-.4.81.81,0,0,1,.35-1.1l1.68-.85a.79.79,0,0,1,.62,0,.81.81,0,0,1,.12,1.5l-1.68.85A.78.78,0,0,1,14,35.53Zm1.68-1.88-.1,0L14,34.52a.22.22,0,0,0-.1.29.24.24,0,0,0,.13.11.22.22,0,0,0,.16,0l1.68-.85a.22.22,0,0,0,0-.4Z"/><path class="cls-1" d="M28.64,16.81,30.32,16a.52.52,0,0,0,.22-.7.51.51,0,0,0-.69-.22l-1.68.85a.52.52,0,0,0,.47.92Z"/><path class="cls-1" d="M28.41,17.16a.78.78,0,0,1-.26,0,.81.81,0,0,1-.47-.4.79.79,0,0,1-.05-.62.81.81,0,0,1,.41-.48l1.68-.85a.81.81,0,0,1,1.09.36.79.79,0,0,1,.05.62.77.77,0,0,1-.41.47l-1.67.86A1,1,0,0,1,28.41,17.16Zm1.67-1.88-.09,0-1.68.86a.22.22,0,0,0-.11.12.21.21,0,0,0,0,.17.17.17,0,0,0,.12.1.18.18,0,0,0,.16,0l1.68-.85a.24.24,0,0,0,.11-.13.22.22,0,0,0,0-.16A.24.24,0,0,0,30.08,15.28Z"/><path class="cls-1" d="M35.78,43.61l1.81.51a.51.51,0,0,0,.63-.35.52.52,0,0,0-.35-.64l-1.82-.51a.51.51,0,1,0-.27,1Z"/><path class="cls-1" d="M37.72,44.44a.76.76,0,0,1-.21,0L35.7,43.9a.81.81,0,1,1,.43-1.57l1.82.51a.82.82,0,0,1-.23,1.6Zm-1.8-1.54a.21.21,0,0,0-.21.16.21.21,0,0,0,.15.26h0l1.81.51a.2.2,0,0,0,.26-.15.2.2,0,0,0-.14-.26L36,42.91Z"/><path class="cls-1" d="M39.84,44.8l1.81.51a.53.53,0,0,0,.64-.36.52.52,0,0,0-.36-.63l-1.81-.51a.52.52,0,0,0-.64.35A.52.52,0,0,0,39.84,44.8Z"/><path class="cls-1" d="M41.79,45.63a.83.83,0,0,1-.22,0l-1.81-.51a.83.83,0,0,1-.57-1,.82.82,0,0,1,1-.56L42,44a.81.81,0,0,1,.56,1,.79.79,0,0,1-.38.49A.83.83,0,0,1,41.79,45.63Zm-1.87-1.12,1.81.51a.22.22,0,0,0,.16,0,.28.28,0,0,0,.11-.13.23.23,0,0,0-.15-.27L40,44.1a.22.22,0,0,0-.27.14.25.25,0,0,0,0,.17.22.22,0,0,0,.13.1Z"/></svg>