<svg id="Layer_1" data-name="Layer 1" xmlns="http://www.w3.org/2000/svg" viewBox="0 0 44.65 45.35"><defs><style>.cls-1,.cls-2{fill:#46c7f4;}.cls-2{fill-rule:evenodd;}</style></defs><path class="cls-1" d="M41.44,44.68H3.4A2.67,2.67,0,0,1,.74,42V3.34A2.67,2.67,0,0,1,3.4.68h38A2.67,2.67,0,0,1,44.1,3.34V42A2.67,2.67,0,0,1,41.44,44.68ZM3.4,2.58a.77.77,0,0,0-.77.76V42a.77.77,0,0,0,.77.76h38a.78.78,0,0,0,.77-.76V3.34a.77.77,0,0,0-.77-.76Z"/><path class="cls-1" d="M12,18.24a1,1,0,0,1-.95-.95V7.85a1,1,0,0,1,1.9,0v9.44A1,1,0,0,1,12,18.24Z"/><path class="cls-1" d="M16.75,13.51H7.31a.95.95,0,1,1,0-1.89h9.44a.95.95,0,1,1,0,1.89Z"/><path class="cls-1" d="M29.06,16.87a1,1,0,0,1-.67-.27,1,1,0,0,1,0-1.34l6.68-6.68a.95.95,0,0,1,1.34,1.34L29.73,16.6A1,1,0,0,1,29.06,16.87Z"/><path class="cls-1" d="M15.37,37.71a.92.92,0,0,1-.67-.28L8,30.76a.95.95,0,0,1,1.34-1.34L16,36.09a1,1,0,0,1-.67,1.62Z"/><path class="cls-1" d="M8.69,37.71A1,1,0,0,1,8,36.09l6.68-6.67A.95.95,0,0,1,16,30.76L9.36,37.43A.92.92,0,0,1,8.69,37.71Z"/><path class="cls-1" d="M43,23.66H1.89a.95.95,0,0,1,0-1.89H43a.95.95,0,0,1,0,1.89Z"/><path class="cls-1" d="M22.42,44.19a1,1,0,0,1-1-.95V2.19a.95.95,0,0,1,1.9,0V43.24A1,1,0,0,1,22.42,44.19Z"/><path class="cls-1" d="M37.5,31.83H28.06a.95.95,0,1,1,0-1.89H37.5a.95.95,0,0,1,0,1.89Z"/><path class="cls-1" d="M37.5,36.91H28.06a.95.95,0,1,1,0-1.89H37.5a.95.95,0,0,1,0,1.89Z"/><path class="cls-2" d="M28.29,8.15a1.13,1.13,0,0,0,1.6,1.6,1.13,1.13,0,1,0-1.6-1.6Z"/><path class="cls-1" d="M29.09,11a2.06,2.06,0,0,1-1.47-.61,2.08,2.08,0,0,1,0-2.94h0a2.06,2.06,0,0,1,1.47-.61h0a2.08,2.08,0,0,1,0,4.16Zm0-2.27a.16.16,0,0,0-.13.06h0A.17.17,0,0,0,28.9,9a.19.19,0,0,0,.32.13A.18.18,0,0,0,29.27,9a.2.2,0,0,0-.05-.13.18.18,0,0,0-.13-.06Z"/><path class="cls-2" d="M35.34,15.2a1.15,1.15,0,0,0,0,1.61,1.13,1.13,0,1,0,0-1.61Z"/><path class="cls-1" d="M36.14,18.09a2.11,2.11,0,0,1-1.47-.61,2.08,2.08,0,0,1,0-2.94h0a2.1,2.1,0,0,1,2.94,0,2.09,2.09,0,0,1-1.47,3.56ZM36,15.87a.19.19,0,1,0,.27.27.19.19,0,0,0,0-.27A.19.19,0,0,0,36,15.87Z"/></svg>