<svg id="Layer_1" data-name="Layer 1" xmlns="http://www.w3.org/2000/svg" viewBox="0 0 45.15 45.56"><defs><style>.cls-1{fill:#55118e;}</style></defs><path class="cls-1" d="M41.5,45h-38A2.66,2.66,0,0,1,.8,42.31V3.64A2.66,2.66,0,0,1,3.46,1h38a2.66,2.66,0,0,1,2.66,2.66V42.31A2.66,2.66,0,0,1,41.5,45Zm-38-42.1a.77.77,0,0,0-.77.77V42.31a.78.78,0,0,0,.77.77h38a.79.79,0,0,0,.77-.77V3.64a.78.78,0,0,0-.77-.77Z"/><path class="cls-1" d="M21.53,43.54a1,1,0,0,0,1.9,0"/><g id="oB8baC"><path class="cls-1" d="M36.38,8.58V1.87H34.54V8.56H1.78a2.37,2.37,0,0,0-.11,2.06v-.2H43.18a2.48,2.48,0,0,0-.12-1.84Z"/><path class="cls-1" d="M10.71,20.35c0-1.36,0-2.73,0-4.1,0-.76.31-1.08,1.07-1.09H20c.75,0,1.06.33,1.07,1.09v8.21c0,.76-.32,1.08-1.08,1.08-2.73,0-5.47,0-8.2,0-.75,0-1.06-.32-1.06-1.08C10.7,23.09,10.71,21.72,10.71,20.35ZM19.26,17H12.51v6.77h6.75Z"/><path class="cls-1" d="M15.82,38.83h-4c-.76,0-1.07-.32-1.07-1.08,0-2.73,0-5.47,0-8.2,0-.79.31-1.1,1.12-1.11H19.9c.84,0,1.15.32,1.15,1.15v8.08c0,.87-.3,1.15-1.19,1.16Zm-3.31-8.61V37h6.73V30.22Z"/><path class="cls-1" d="M23.85,33.65c0-1.35,0-2.7,0-4,0-.86.28-1.15,1.11-1.16h8.09c.8,0,1.1.31,1.1,1.12v8.15c0,.83-.27,1.11-1.09,1.12H24.92c-.78,0-1.06-.29-1.06-1.07C23.85,36.39,23.85,35,23.85,33.65ZM25.64,37h6.72V30.24H25.64Z"/><path class="cls-1" d="M23.85,20.35c0-1.37,0-2.74,0-4.11,0-.77.29-1.07,1.06-1.08h8.15c.8,0,1.09.3,1.09,1.12v8.15c0,.82-.28,1.11-1.1,1.11-2.69,0-5.39,0-8.08,0-.85,0-1.12-.28-1.12-1.14C23.85,23.05,23.85,21.7,23.85,20.35Zm8.51,3.41V17h-6.7v6.79Z"/><path class="cls-1" d="M7.23,4.74V6.42H5.57V4.74Z"/><path class="cls-1" d="M11,4.74V6.42H9.36V4.74Z"/><path class="cls-1" d="M13.15,4.72h1.63V6.43H13.15Z"/></g></svg>