<svg id="Layer_1" data-name="Layer 1" xmlns="http://www.w3.org/2000/svg" viewBox="0 0 43.53 43.53"><defs><style>.cls-1{fill:#55118e;}</style></defs><path class="cls-1" d="M42.27,1.16A1.27,1.27,0,0,0,41.19,1l-1.79.32-.95.18-1.7.3-1,.19,0-.07C35.3,1,35,.8,34.2,1L24.56,2.71a.75.75,0,0,1-.77-.24c-.17-.19-.36-.37-.54-.54s-.36-.36-.53-.55a1.29,1.29,0,0,0-1-.47,1.78,1.78,0,0,0-.44.06c-.75.19-1.52.37-2.26.54l-.91.21-.58.14L2,5.51A1.18,1.18,0,0,0,.88,6.89V36.7c0,.87.31,1.23,1.2,1.39L9.6,39.46l5.85,1.06,11.87,2.16a1.14,1.14,0,0,0,1.3-.72l.14-.34,1.76.34,3.46.66c1,.19,1.37,0,1.73-.93l0-.07,1.75.33,3.69.7a1.31,1.31,0,0,0,1.08-.2,1.34,1.34,0,0,0,.4-1.06V2.19A1.3,1.3,0,0,0,42.27,1.16ZM21.71,3.59,26,7.88H21.71Zm4.77,36.72-1-.17-1.47-.27-16.61-3c-1.31-.24-2.66-.49-4-.72-.39-.07-.42-.29-.42-.56q0-9.26,0-18.51V12.88C3,11.24,3,9.6,3,8c0-.22,0-.45.36-.53L15.69,4.56l3.46-.81.16,0,.21,0V8.9a1.08,1.08,0,0,0,1.23,1.21h5.73Zm7,0-.93-.16c-1.18-.21-2.4-.43-3.59-.66-.14,0-.24-.21-.27-.31a.88.88,0,0,1,0-.28.34.34,0,0,0,0-.1V33.35q0-12.58,0-25.18a1.79,1.79,0,0,0-.58-1.4c-.48-.45-.93-.91-1.41-1.39l-.62-.62L26,4.64l7.51-1.35Zm7,0-.86-.15-2.06-.37L37,39.7c-.33-.07-.68-.13-1-.18s-.38-.18-.35-.43a.75.75,0,0,0,0-.15V4.16l4.81-.87Z"/><path class="cls-1" d="M19.62,22.05a6.88,6.88,0,1,0-2.91,5.6l5.15,5.05,1.53-1.57-5.12-5A6.8,6.8,0,0,0,19.62,22.05Zm-6.86,4.66a4.66,4.66,0,1,1,4.66-4.66A4.66,4.66,0,0,1,12.76,26.71Z"/></svg>