<svg id="Layer_1" data-name="Layer 1" xmlns="http://www.w3.org/2000/svg" viewBox="0 0 46.15 47.74"><defs><style>.cls-1{fill:#fff;}</style></defs><path class="cls-1" d="M20.42,47.27a20,20,0,0,1,0-40.08h0a1.25,1.25,0,0,1,1.25,1.25V26.71l12.89,13a1.26,1.26,0,0,1,0,1.77A19.94,19.94,0,0,1,20.42,47.27ZM19.17,9.73a17.54,17.54,0,1,0,12.7,30.79L19.54,28.11a1.3,1.3,0,0,1-.37-.87V9.73Z"/><path class="cls-1" d="M39.08,39.67h0a1.24,1.24,0,0,1-.89-.37L25.44,26.47a1.27,1.27,0,0,1-.36-.88v-.18a1.25,1.25,0,0,1,1.25-1.25H44.42a1.25,1.25,0,0,1,1.25,1.23v.18A19.25,19.25,0,0,1,40,39.31,1.25,1.25,0,0,1,39.08,39.67Zm-9.93-13,9.9,10a16.68,16.68,0,0,0,4.09-10Z"/><path class="cls-1" d="M43,21.33H25a1.25,1.25,0,0,1-1.25-1.25V2.16A1.25,1.25,0,0,1,25,.91h0A19.39,19.39,0,0,1,44.29,20.07a1.21,1.21,0,0,1-.36.89A1.26,1.26,0,0,1,43,21.33ZM26.2,18.83H41.74A16.92,16.92,0,0,0,26.2,3.46Z"/></svg>