<svg id="Layer_1" data-name="Layer 1" xmlns="http://www.w3.org/2000/svg" viewBox="0 0 57.76 54.71"><defs><style>.cls-1{fill:#fff;}</style></defs><g id="_61PNEo" data-name="61PNEo"><path class="cls-1" d="M10.23,22l-.42-.33L1.89,15.76c-.9-.68-.9-1.28,0-1.94l15.5-11.1c.74-.54,1-.53,1.72,0l8.42,6.54.52.38V2.49c0-.7.41-1.14,1-1.12A1,1,0,0,1,30,2.45V9.67l.56-.28q4.39-2.33,8.77-4.67a1.5,1.5,0,0,1,1.58,0q7.6,4.08,15.22,8.12a2.67,2.67,0,0,1,.59.4.81.81,0,0,1,0,1.19,2.74,2.74,0,0,1-.55.46l-9.79,6.55-.51.36.57.44,9.79,7.45c.89.68.85,1.34-.11,1.92-2.46,1.47-4.92,2.94-7.4,4.39a1,1,0,0,0-.58,1c0,4,0,1.93,0,5.89a1.44,1.44,0,0,1-.85,1.43Q38.5,49.11,29.66,54a1.6,1.6,0,0,1-1.72,0Q19,49.21,10.1,44.46A1.41,1.41,0,0,1,9.26,43c0-4.24,0-2.48,0-6.72a.83.83,0,0,0-.41-.78c-2.43-1.66-4.84-3.34-7.25-5-1-.68-1-1.28-.05-2L9.8,22.35C9.94,22.25,10.07,22.14,10.23,22ZM28.81,32.93c-.15.13-.3.24-.44.37l-9.25,8c-.76.66-1,.67-1.84.11l-5.6-3.88-.46-.29c0,.15-.05.25-.05.34,0,3.66,0,1.32,0,5,0,.32.18.43.42.56q8.4,4.48,16.79,9a.73.73,0,0,0,.79,0q8.39-4.59,16.77-9.15a.63.63,0,0,0,.37-.64c0-3.45,0-.91,0-4.36a4.12,4.12,0,0,0,0-.42L40.3,41c-.75.44-1,.43-1.66-.11ZM13.71,22l.34.21q7.17,4.09,14.36,8.21a.61.61,0,0,0,.73,0q6.49-4.15,13-8.28a5.06,5.06,0,0,0,.42-.3L30,13.45v6.42l.08-.05.93-.88a1,1,0,0,1,1.49-.13c.43.44.38,1-.16,1.49-.87.86-1.75,1.72-2.64,2.57a1,1,0,0,1-1.42,0l-2.67-2.62a1,1,0,0,1-.1-1.44,1,1,0,0,1,1.45.1l1.05,1V13Zm16.73,9.8a4.26,4.26,0,0,0,.33.31Q35,35.5,39.22,39a.58.58,0,0,0,.8,0q6.87-4.11,13.76-8.2l.44-.29L44.28,23ZM18.1,39.62l9-7.76L27,31.75q-7.38-4.21-14.75-8.44c-.3-.17-.46-.06-.67.1L3.86,29.2l-.36.31ZM3.84,14.8,4,15q3.8,2.84,7.58,5.68c.28.22.45.12.67,0l14.41-9,.37-.26-.32-.26C24,9,21.35,6.91,18.68,4.81a.61.61,0,0,0-.9,0q-6.48,4.67-13,9.31ZM54.13,14l-.29-.18Q47.13,10.2,40.42,6.64a.77.77,0,0,0-.63,0C36.86,8.19,33.94,9.75,31,11.3a4,4,0,0,0-.38.24l.19.15q6.54,4.33,13.09,8.7a.55.55,0,0,0,.72-.05l9.1-6.09Z"/></g></svg>