<svg id="Layer_1" data-name="Layer 1" xmlns="http://www.w3.org/2000/svg" viewBox="0 0 43.41 43.06"><defs><style>.cls-1{fill:#55118e;}</style></defs><g id="kJYtXK"><path class="cls-1" d="M39.73,26c.44,1,.87,2,1.3,2.94a1.07,1.07,0,0,1-.72,1.61c-.91.32-1.82.63-2.74.93a.32.32,0,0,0-.27.4c.1,1,.17,1.95.25,2.93a1.06,1.06,0,0,1-1.14,1.27H33.15l-.57,2.29c-.08.3-.15.6-.22.9a1,1,0,0,1-1.44.79c-.93-.31-1.85-.64-2.77-1L27.79,39,26,41.7a1,1,0,0,1-1.13.53,1.33,1.33,0,0,1-.56-.27l-2.55-2-2.43,1.91a1.11,1.11,0,0,1-1.88-.3L15.78,39l-1.91.65-1.13.4a1.07,1.07,0,0,1-1.55-.84c-.23-.94-.48-1.87-.69-2.81-.06-.23-.15-.31-.38-.3H7.25c-.89,0-1.3-.43-1.23-1.32s.15-1.91.25-2.86c0-.25,0-.35-.27-.42-.92-.3-1.83-.61-2.75-.93a1.07,1.07,0,0,1-.71-1.61c.4-.89.79-1.79,1.2-2.68a.29.29,0,0,0-.11-.43c-.78-.58-1.54-1.18-2.31-1.77a1.07,1.07,0,0,1-.14-1.8l2.16-2.33-1.7-2.57a1.13,1.13,0,0,1,.47-1.88c.81-.43,1.62-.87,2.44-1.29a.36.36,0,0,0,.21-.5c-.26-.94-.5-1.89-.74-2.84A1.06,1.06,0,0,1,5,9.45c1-.16,2-.33,2.94-.48.22,0,.3-.11.31-.32.07-1,.15-2,.22-2.93A1.06,1.06,0,0,1,9.75,4.64c1,.15,2,.34,3.07.51l.16,0,1.24-2.85A1.1,1.1,0,0,1,16,1.71l2.79,1.53c.06-.09.12-.21.2-.31L20.92.81a1.09,1.09,0,0,1,1.72,0L24.83,3.2c1-.51,1.87-1,2.81-1.52a1.72,1.72,0,0,1,.73-.19,1,1,0,0,1,.93.7c.38.89.76,1.77,1.15,2.66,0,.11.1.21.15.33l3-.52A1.11,1.11,0,0,1,34.87,5a1.23,1.23,0,0,1,.25.6c.11,1.1.19,2.21.28,3.34l2.76.46a4.85,4.85,0,0,1,.53.08,1.06,1.06,0,0,1,.87,1.37l-.79,3a1.43,1.43,0,0,1,0,.16l2.8,1.51a1.68,1.68,0,0,1,.46.33,1,1,0,0,1,0,1.33c-.58.9-1.17,1.8-1.78,2.72l.24.29c.65.7,1.29,1.41,2,2.09A1.12,1.12,0,0,1,42.3,24C41.44,24.66,40.6,25.33,39.73,26ZM3.88,16.93c.52.78,1,1.55,1.53,2.32a1.11,1.11,0,0,1-.14,1.69L3.38,23c.74.57,1.46,1.12,2.17,1.68s.8.89.44,1.7S5.25,28,4.88,28.87l.35.13,2.44.83a1,1,0,0,1,.79,1.08c0,.31-.05.61-.08.92-.06.7-.12,1.4-.18,2.13H11a1.11,1.11,0,0,1,1.27,1c.23.9.45,1.8.68,2.73l.35-.11,2.17-.75c1-.33,1.24-.23,1.8.63l1.43,2.21.31-.23,2-1.55a1.72,1.72,0,0,1,.46-.25,1.05,1.05,0,0,1,1,.22l2.31,1.82,1.47-2.26c.52-.81.84-.92,1.74-.6l2.55.88c.22-.91.44-1.79.66-2.67A1.15,1.15,0,0,1,32.6,34h2.77c-.09-1-.18-2-.25-2.95a1,1,0,0,1,.79-1.18l1.27-.43,1.47-.51a.37.37,0,0,0,0-.08c-.38-.87-.77-1.74-1.15-2.62a1,1,0,0,1,.35-1.4c.67-.53,1.35-1,2-1.56l.3-.25L38.26,20.9a1.08,1.08,0,0,1-.15-1.58l1.27-1.92.31-.48-2.51-1.34a1.07,1.07,0,0,1-.64-1.45l.7-2.76-.4-.08-2.44-.4a1.1,1.1,0,0,1-1-1.19c-.07-.93-.15-1.85-.22-2.81l-2.71.46c-.87.15-1.19,0-1.54-.84S28.15,4.85,27.78,4L25.27,5.36a1.11,1.11,0,0,1-1.57-.27L21.78,3c-.61.68-1.21,1.33-1.81,2s-1,.77-1.81.31L15.79,4c-.4.91-.78,1.79-1.15,2.66a1.1,1.1,0,0,1-1.33.73l-.94-.16-1.93-.33c-.08,1-.16,2-.24,3a1,1,0,0,1-.91,1L8,11.08l-1.71.28c.23.93.46,1.81.68,2.69a1.12,1.12,0,0,1-.68,1.56Z"/><path class="cls-1" d="M29.82,12.19a1,1,0,0,1,1,.55.94.94,0,0,1,0,1,3.17,3.17,0,0,1-.29.35q-8,8-15.92,15.92a1.07,1.07,0,0,1-1.79-.14,1,1,0,0,1,.08-1.1c.09-.11.19-.21.29-.31L29,12.62A1.12,1.12,0,0,1,29.82,12.19Z"/><path class="cls-1" d="M16.13,11.69a4,4,0,1,1-4,4A4,4,0,0,1,16.13,11.69Zm1.86,4a1.88,1.88,0,1,0-1.88,1.88A1.87,1.87,0,0,0,18,15.65Z"/><path class="cls-1" d="M27.44,23a4,4,0,1,1-4,4A4,4,0,0,1,27.44,23Zm1.88,4a1.88,1.88,0,0,0-1.85-1.88,1.88,1.88,0,1,0,0,3.75A1.86,1.86,0,0,0,29.32,27Z"/></g></svg>