<?xml version="1.0" encoding="utf-8"?>
<svg xmlns="http://www.w3.org/2000/svg" viewBox="0 0 48 48" fill="#fff"><path d="M 8.0019531 7 C 7.1739531 7 6.5019531 7.671 6.5019531 8.5 L 6.5019531 9.1679688 C 4.6689531 9.6659687 3.2714844 11.324 3.2714844 13.25 C 3.2714844 15.593 5.1774844 17.5 7.5214844 17.5 L 8.7519531 17.5 C 9.4409531 17.5 10.001953 18.061 10.001953 18.75 C 10.001953 19.439 9.44 20 8.75 20 L 7.0390625 20 C 6.2190625 20 5.8967969 19.440125 5.8417969 19.328125 C 5.4717969 18.587125 4.571125 18.290203 3.828125 18.658203 C 3.087125 19.029203 2.7882031 19.929875 3.1582031 20.671875 C 3.6692031 21.691875 4.802 22.765938 6.5 22.960938 L 6.5 23.5 C 6.5 24.329 7.172 25 8 25 C 8.828 25 9.5 24.329 9.5 23.5 L 9.5 22.923828 C 11.486 22.567828 13 20.837 13 18.75 C 13 16.407 11.094 14.5 8.75 14.5 L 7.5195312 14.5 C 6.8305312 14.5 6.2695312 13.939 6.2695312 13.25 C 6.2695312 12.584 6.8982344 12 7.6152344 12 L 8.4628906 12 C 9.2208906 12 9.4842031 12.322875 9.6582031 12.671875 C 10.029203 13.413875 10.929875 13.711797 11.671875 13.341797 C 12.412875 12.970797 12.71375 12.070125 12.34375 11.328125 C 11.74875 10.139125 10.756953 9.3812812 9.5019531 9.1132812 L 9.5019531 8.5 C 9.5019531 7.671 8.8299531 7 8.0019531 7 z M 24.001953 7 C 23.173953 7 22.501953 7.671 22.501953 8.5 L 22.501953 9.1679688 C 20.668953 9.6659687 19.271484 11.324 19.271484 13.25 C 19.271484 15.593 21.177484 17.5 23.521484 17.5 L 24.751953 17.5 C 25.440953 17.5 26.001953 18.061 26.001953 18.75 C 26.001953 19.439 25.44 20 24.75 20 L 23.039062 20 C 22.219062 20 21.896797 19.440125 21.841797 19.328125 C 21.471797 18.587125 20.571125 18.290203 19.828125 18.658203 C 19.087125 19.029203 18.788203 19.929875 19.158203 20.671875 C 19.669203 21.691875 20.802 22.765938 22.5 22.960938 L 22.5 23.5 C 22.5 24.329 23.172 25 24 25 C 24.828 25 25.5 24.329 25.5 23.5 L 25.5 22.923828 C 27.486 22.567828 29 20.837 29 18.75 C 29 16.407 27.094 14.5 24.75 14.5 L 23.519531 14.5 C 22.830531 14.5 22.269531 13.939 22.269531 13.25 C 22.269531 12.584 22.898234 12 23.615234 12 L 24.462891 12 C 25.220891 12 25.484203 12.322875 25.658203 12.671875 C 26.029203 13.413875 26.929875 13.711797 27.671875 13.341797 C 28.412875 12.970797 28.71375 12.070125 28.34375 11.328125 C 27.74875 10.139125 26.756953 9.3812812 25.501953 9.1132812 L 25.501953 8.5 C 25.501953 7.671 24.829953 7 24.001953 7 z M 40.001953 7 C 39.173953 7 38.501953 7.671 38.501953 8.5 L 38.501953 9.1679688 C 36.668953 9.6659687 35.271484 11.324 35.271484 13.25 C 35.271484 15.593 37.177484 17.5 39.521484 17.5 L 40.751953 17.5 C 41.440953 17.5 42.001953 18.061 42.001953 18.75 C 42.001953 19.439 41.44 20 40.75 20 L 39.039062 20 C 38.219062 20 37.896797 19.440125 37.841797 19.328125 C 37.471797 18.587125 36.571125 18.290203 35.828125 18.658203 C 35.087125 19.029203 34.788203 19.929875 35.158203 20.671875 C 35.669203 21.691875 36.802 22.765938 38.5 22.960938 L 38.5 23.5 C 38.5 24.329 39.172 25 40 25 C 40.828 25 41.5 24.329 41.5 23.5 L 41.5 22.923828 C 43.486 22.567828 45 20.837 45 18.75 C 45 16.407 43.094 14.5 40.75 14.5 L 39.519531 14.5 C 38.830531 14.5 38.269531 13.939 38.269531 13.25 C 38.269531 12.584 38.898234 12 39.615234 12 L 40.462891 12 C 41.220891 12 41.484203 12.322875 41.658203 12.671875 C 42.029203 13.413875 42.929875 13.711797 43.671875 13.341797 C 44.412875 12.970797 44.71375 12.070125 44.34375 11.328125 C 43.74875 10.139125 42.756953 9.3812812 41.501953 9.1132812 L 41.501953 8.5 C 41.501953 7.671 40.829953 7 40.001953 7 z M 38.484375 28.984375 A 1.50015 1.50015 0 0 0 37.439453 31.560547 L 39.878906 34 L 29.287109 34 C 29.075463 33.189446 28.706544 32.412538 28.121094 31.753906 C 27.179518 30.694633 25.708333 30 24 30 C 22.291667 30 20.820482 30.694633 19.878906 31.753906 C 19.293456 32.412538 18.924537 33.189446 18.712891 34 L 13.787109 34 C 13.575463 33.189446 13.206544 32.412538 12.621094 31.753906 C 11.679518 30.694633 10.208333 30 8.5 30 C 6.7916671 30 5.3204817 30.694633 4.3789062 31.753906 C 3.4373308 32.813179 3 34.166667 3 35.5 C 3 36.833333 3.4373308 38.186821 4.3789062 39.246094 C 5.3204817 40.305367 6.7916671 41 8.5 41 C 10.208333 41 11.679518 40.305367 12.621094 39.246094 C 13.206544 38.587462 13.575463 37.810554 13.787109 37 L 18.712891 37 C 18.924537 37.810554 19.293456 38.587462 19.878906 39.246094 C 20.820482 40.305367 22.291667 41 24 41 C 25.708333 41 27.179518 40.305367 28.121094 39.246094 C 28.706544 38.587462 29.075463 37.810554 29.287109 37 L 39.878906 37 L 37.439453 39.439453 A 1.50015 1.50015 0 1 0 39.560547 41.560547 L 44.431641 36.689453 A 1.50015 1.50015 0 0 0 44.423828 34.302734 L 39.560547 29.439453 A 1.50015 1.50015 0 0 0 38.484375 28.984375 z M 8.5 33 C 9.4583326 33 9.9871492 33.305367 10.378906 33.746094 C 10.740869 34.153301 10.956408 34.73747 10.988281 35.349609 A 1.50015 1.50015 0 0 0 10.986328 35.654297 C 10.95368 36.264952 10.740068 36.8476 10.378906 37.253906 C 9.9871492 37.694633 9.4583326 38 8.5 38 C 7.5416674 38 7.012851 37.694633 6.6210938 37.253906 C 6.2293364 36.813179 6 36.166667 6 35.5 C 6 34.833333 6.2293364 34.186821 6.6210938 33.746094 C 7.012851 33.305367 7.5416674 33 8.5 33 z M 24 33 C 24.958333 33 25.487149 33.305367 25.878906 33.746094 C 26.240869 34.153301 26.456408 34.73747 26.488281 35.349609 A 1.50015 1.50015 0 0 0 26.486328 35.654297 C 26.45368 36.264952 26.240068 36.8476 25.878906 37.253906 C 25.487149 37.694633 24.958333 38 24 38 C 23.041667 38 22.512851 37.694633 22.121094 37.253906 C 21.759131 36.846699 21.543592 36.26253 21.511719 35.650391 A 1.50015 1.50015 0 0 0 21.513672 35.345703 C 21.54632 34.735048 21.759932 34.1524 22.121094 33.746094 C 22.512851 33.305367 23.041667 33 24 33 z" fill="#fff"/></svg>
