<?xml version="1.0" encoding="utf-8"?>
<svg xmlns="http://www.w3.org/2000/svg" viewBox="0 0 48 48" fill="#fff"><path d="M 38 5 C 36.458334 5 35.112148 5.6321334 34.253906 6.5976562 C 33.395664 7.5631791 33 8.7916668 33 10 C 33 10.60022 33.09928 11.205673 33.302734 11.78125 L 26.783203 16.90625 C 25.994679 16.386428 25.08256 16 24 16 C 22.630686 16 21.471189 16.549915 20.615234 17.337891 L 14.824219 14.03125 C 14.891265 13.687074 15 13.347524 15 13 C 15 11.791667 14.604336 10.563179 13.746094 9.5976562 C 12.887852 8.6321335 11.541666 8 10 8 C 8.4583337 8 7.1121484 8.6321335 6.2539062 9.5976562 C 5.3956641 10.563179 5 11.791667 5 13 C 5 14.208333 5.3956642 15.436821 6.2539062 16.402344 C 7.1121484 17.367867 8.4583337 18 10 18 C 11.369314 18 12.528811 17.450085 13.384766 16.662109 L 19.175781 19.96875 C 19.108735 20.312926 19 20.652476 19 21 C 19 22.208333 19.395664 23.436821 20.253906 24.402344 C 21.112148 25.367867 22.458334 26 24 26 C 25.541666 26 26.887852 25.367867 27.746094 24.402344 C 28.604336 23.436821 29 22.208333 29 21 C 29 20.39978 28.90072 19.794327 28.697266 19.21875 L 35.216797 14.09375 C 36.005321 14.613572 36.91744 15 38 15 C 39.541666 15 40.887852 14.367867 41.746094 13.402344 C 42.604336 12.436821 43 11.208333 43 10 C 43 8.7916668 42.604336 7.5631792 41.746094 6.5976562 C 40.887852 5.6321334 39.541666 5 38 5 z M 38 8 C 38.791666 8 39.195482 8.2428665 39.503906 8.5898438 C 39.81233 8.9368209 40 9.4583332 40 10 C 40 10.541667 39.81233 11.063179 39.503906 11.410156 C 39.195482 11.757133 38.791666 12 38 12 C 37.256854 12 36.889417 11.760557 36.587891 11.447266 A 1.50015 1.50015 0 0 0 36.419922 11.193359 C 36.191659 10.857495 36 10.458403 36 10 C 36 9.4583332 36.18767 8.9368209 36.496094 8.5898438 C 36.804518 8.2428665 37.208334 8 38 8 z M 10 11 C 10.791666 11 11.195482 11.242867 11.503906 11.589844 C 11.81233 11.936821 12 12.458333 12 13 C 12 13.541667 11.81233 14.063179 11.503906 14.410156 C 11.195482 14.757133 10.791666 15 10 15 C 9.208334 15 8.8045176 14.757133 8.4960938 14.410156 C 8.1876697 14.063179 8 13.541667 8 13 C 8 12.458333 8.1876698 11.936821 8.4960938 11.589844 C 8.8045176 11.242867 9.208334 11 10 11 z M 24 19 C 24.743146 19 25.110583 19.239443 25.412109 19.552734 A 1.50015 1.50015 0 0 0 25.580078 19.806641 C 25.808341 20.142505 26 20.541597 26 21 C 26 21.541667 25.81233 22.063179 25.503906 22.410156 C 25.195482 22.757133 24.791666 23 24 23 C 23.208334 23 22.804518 22.757133 22.496094 22.410156 C 22.18767 22.063179 22 21.541667 22 21 C 22 20.458333 22.18767 19.936821 22.496094 19.589844 C 22.804518 19.242867 23.208334 19 24 19 z M 37.994141 19 C 35.247707 19 32.990234 21.259425 32.990234 24.005859 L 32.990234 39 C 32.990234 41.746434 35.247707 44.005859 37.994141 44.005859 C 40.740575 44.005859 43 41.746434 43 39 L 43 24.005859 C 43 21.259425 40.740575 19 37.994141 19 z M 37.994141 22 C 39.119707 22 40 22.880293 40 24.005859 L 40 39 C 40 40.125566 39.119707 41.005859 37.994141 41.005859 C 36.868575 41.005859 35.990234 40.125566 35.990234 39 L 35.990234 24.005859 C 35.990234 22.880293 36.868575 22 37.994141 22 z M 9.9941406 22.005859 C 7.2477067 22.005859 4.9902344 24.263332 4.9902344 27.009766 L 4.9902344 39 C 4.9902344 41.746434 7.2477067 44.005859 9.9941406 44.005859 C 12.740575 44.005859 15 41.746434 15 39 L 15 27.009766 C 15 24.263332 12.740575 22.005859 9.9941406 22.005859 z M 9.9941406 25.005859 C 11.119707 25.005818 12 25.8842 12 27.009766 L 12 39 C 12 40.125566 11.119707 41.005859 9.9941406 41.005859 C 8.8685745 41.005859 7.9902344 40.125566 7.9902344 39 L 7.9902344 27.009766 C 7.9902344 25.8842 8.8685745 25.005859 9.9941406 25.005859 z M 24 30 C 21.253566 30 18.994141 32.259425 18.994141 35.005859 L 18.994141 39 C 18.994141 41.746434 21.253566 44.005859 24 44.005859 C 26.746434 44.005859 29.005859 41.746434 29.005859 39 L 29.005859 35.005859 C 29.005859 32.259425 26.746434 30 24 30 z M 24 33 C 25.125566 33 26.005859 33.880293 26.005859 35.005859 L 26.005859 39 C 26.005859 40.125566 25.125566 41.005859 24 41.005859 C 22.874434 41.005859 21.994141 40.125566 21.994141 39 L 21.994141 35.005859 C 21.994141 33.880293 22.874434 33 24 33 z" fill="#fff"/></svg>
