<svg id="Layer_1" data-name="Layer 1" xmlns="http://www.w3.org/2000/svg" viewBox="0 0 44.74 49.94"><defs><style>.cls-1{fill:#fff;}</style></defs><g id="O2gqnw"><path class="cls-1" d="M14.46,21a3.74,3.74,0,0,1,5-.45,3.68,3.68,0,0,1,1.44,2.27,3.77,3.77,0,0,1-1.1,3.48l.16.12a5.22,5.22,0,0,1,2.49,4.76.83.83,0,0,1-.89.92h-8.7a.83.83,0,0,1-.88-.86,5.22,5.22,0,0,1,1.56-4.08,12.12,12.12,0,0,1,1.08-.88A3.76,3.76,0,0,1,14.46,21Zm6.18,9.38c.08-1.45-1.67-3-3.41-3a3.43,3.43,0,0,0-3.48,3ZM19.3,23.51a2.08,2.08,0,0,0-2.09-2,2,2,0,1,0,2.09,2Z"/><g id="O2gqnw-2" data-name="O2gqnw"><path class="cls-1" d="M29,21a3.74,3.74,0,0,1,5-.45,3.68,3.68,0,0,1,1.44,2.27,3.77,3.77,0,0,1-1.1,3.48l.16.12a5.22,5.22,0,0,1,2.49,4.76.83.83,0,0,1-.89.92h-8.7a.83.83,0,0,1-.88-.86A5.22,5.22,0,0,1,28,27.15a12.12,12.12,0,0,1,1.08-.88A3.76,3.76,0,0,1,29,21Zm6.18,9.38c.08-1.45-1.67-3-3.41-3a3.43,3.43,0,0,0-3.48,3ZM33.8,23.51a2.08,2.08,0,0,0-2.09-2,2,2,0,1,0,2.09,2Z"/></g><g id="O2gqnw-3" data-name="O2gqnw"><g id="O2gqnw-4" data-name="O2gqnw"><path class="cls-1" d="M2.34,30.37h3.8c.08-1.45-1.67-3-3.41-3a2.45,2.45,0,0,0-.39,0V25.6a2.22,2.22,0,0,0,.45,0,2.06,2.06,0,0,0,2-2.13,2.08,2.08,0,0,0-2.09-2,1.57,1.57,0,0,0-.37.05V19.81A3.7,3.7,0,0,1,5,20.54a3.68,3.68,0,0,1,1.44,2.27,3.77,3.77,0,0,1-1.1,3.48l.16.12a5.22,5.22,0,0,1,2.49,4.76.83.83,0,0,1-.89.92H2.34Z"/></g></g></g><path class="cls-1" d="M41.47.68h-38A2.67,2.67,0,0,0,.77,3.34V42a2.67,2.67,0,0,0,2.66,2.67H29.11A4.22,4.22,0,0,1,29,44a8.11,8.11,0,0,1-.07-1.21H3.43A.78.78,0,0,1,2.66,42V3.34a.77.77,0,0,1,.77-.76h38a.77.77,0,0,1,.77.76V42a.79.79,0,0,1-.77.77H33.22a.46.46,0,0,1,.07.27,4.77,4.77,0,0,1-.55,1.63h8.73A2.67,2.67,0,0,0,44.13,42V3.34A2.67,2.67,0,0,0,41.47.68Z"/><path class="cls-1" d="M21.5,43.24a1,1,0,1,0,1.9,0"/><g id="oB8baC"><path class="cls-1" d="M36.34,8.28V1.57H34.51V8.26H1.75a2.39,2.39,0,0,0-.11,2.07v-.21H43.15A2.49,2.49,0,0,0,43,8.28Z"/><path class="cls-1" d="M7.2,4.44V6.13H5.54V4.44Z"/><path class="cls-1" d="M11,4.45V6.12H9.33V4.45Z"/><path class="cls-1" d="M13.12,4.43h1.63v1.7H13.12Z"/></g><g id="_3sQFyd" data-name="3sQFyd"><path class="cls-1" d="M25.17,34.77a.86.86,0,0,1,1.2-.85l6.2,2.1L40,38.55A.9.9,0,0,1,40.47,40a.93.93,0,0,1-.41.29L34.3,42.69A.46.46,0,0,0,34,43l-2.36,5.78a1,1,0,0,1-1.34.52.82.82,0,0,1-.41-.5q-1.86-5.51-3.73-11l-.91-2.68C25.22,35,25.19,34.84,25.17,34.77Zm2.28,1.36L30.85,46a1.54,1.54,0,0,0,.09-.19c.53-1.32,1.06-2.63,1.57-3.95a1,1,0,0,1,.65-.65l3.93-1.57.23-.1Z"/></g></svg>