<?xml version="1.0" encoding="utf-8"?>
<svg xmlns="http://www.w3.org/2000/svg" viewBox="0 0 48 48" fill="#fff"><path d="M 27.5 3 A 1.50015 1.50015 0 0 0 26 4.5 L 26 20.5 A 1.50015 1.50015 0 0 0 27.5 22 L 43.5 22 A 1.50015 1.50015 0 0 0 45 20.5 C 45 10.852431 37.147569 3 27.5 3 z M 29 6.1503906 C 35.807319 6.8557699 41.14423 12.192681 41.849609 19 L 29 19 L 29 6.1503906 z M 21.5 9 C 11.852431 9 4 16.852431 4 26.5 C 4 36.147569 11.852431 44 21.5 44 C 31.147569 44 39 36.147569 39 26.5 A 1.50015 1.50015 0 0 0 37.5 25 L 23 25 L 23 10.5 A 1.50015 1.50015 0 0 0 21.5 9 z M 20 12.150391 L 20 26.5 A 1.50015 1.50015 0 0 0 21.5 28 L 35.849609 28 C 35.092418 35.307332 29.012387 41 21.5 41 C 13.473569 41 7 34.526431 7 26.5 C 7 18.987613 12.692668 12.907582 20 12.150391 z" fill="#fff"/></svg>
