<?xml version="1.0" encoding="utf-8"?>
<svg xmlns="http://www.w3.org/2000/svg" viewBox="0 0 48 48" fill="#fff"><path d="M 18 4.9980469 C 17.81 4.9980469 17.619453 5.034375 17.439453 5.109375 L 13.029297 6.8691406 L 9.109375 5.1308594 C 8.649375 4.9208594 8.1096875 4.9702344 7.6796875 5.2402344 C 7.2596875 5.5202344 7 5.99 7 6.5 L 7 37.5 C 7 40.53 9.47 43 12.5 43 L 33.5 43 C 33.65 43 33.799219 42.990469 33.949219 42.980469 C 33.679219 42.540469 33.460781 42.060547 33.300781 41.560547 C 33.130781 41.040547 33.099687 40.51 33.179688 40 L 12.5 40 C 11.12 40 10 38.88 10 37.5 L 10 8.8105469 L 12.390625 9.8691406 C 12.760625 10.039141 13.180547 10.040625 13.560547 9.890625 L 18 8.1191406 L 22.439453 9.890625 C 22.799453 10.040625 23.200547 10.040625 23.560547 9.890625 L 28 8.1191406 L 32.439453 9.890625 C 32.819453 10.040625 33.239375 10.039141 33.609375 9.8691406 L 36 8.8105469 L 36 27.140625 C 36.18 27.010625 36.370312 26.899062 36.570312 26.789062 C 36.830312 25.529062 37.77 24.510391 39 24.150391 L 39 6.5 C 39 5.99 38.740312 5.5202344 38.320312 5.2402344 C 37.890313 4.9702344 37.350625 4.9208594 36.890625 5.1308594 L 32.970703 6.8691406 L 28.560547 5.109375 C 28.200547 4.959375 27.799453 4.959375 27.439453 5.109375 L 23 6.8808594 L 18.560547 5.109375 C 18.380547 5.034375 18.19 4.9980469 18 4.9980469 z M 14.5 17 A 1.50015 1.50015 0 1 0 14.5 20 L 31.5 20 A 1.50015 1.50015 0 1 0 31.5 17 L 14.5 17 z M 14.5 26 A 1.50015 1.50015 0 1 0 14.5 29 L 23.5 29 A 1.50015 1.50015 0 1 0 23.5 26 L 14.5 26 z M 29.5 26 A 1.50015 1.50015 0 1 0 29.5 29 L 31.5 29 A 1.50015 1.50015 0 1 0 31.5 26 L 29.5 26 z M 40 26 C 39.172 26 38.5 26.672 38.5 27.5 L 38.5 28.158203 C 36.492 28.720203 35 30.558375 35 32.734375 C 35 35.362375 37.137625 37.501953 39.765625 37.501953 L 41.234375 37.501953 C 42.208375 37.501953 43.001953 38.293578 43.001953 39.267578 C 43.001953 40.232578 42.216 41.02325 41.25 41.03125 L 39.410156 41.048828 C 38.791156 41.048828 38.250453 40.652453 38.064453 40.064453 C 37.816453 39.275453 36.974594 38.834984 36.183594 39.083984 C 35.393594 39.332984 34.954125 40.174844 35.203125 40.964844 C 35.690125 42.509844 36.959953 43.618406 38.501953 43.941406 L 38.501953 44.5 C 38.501953 45.328 39.173953 46 40.001953 46 C 40.829953 46 41.501953 45.328 41.501953 44.5 L 41.501953 44.005859 C 43.999953 43.863859 46 41.793625 46 39.265625 C 46 36.637625 43.862375 34.5 41.234375 34.5 L 39.765625 34.5 C 38.792625 34.5 38 33.707469 38 32.730469 C 38 31.771469 38.780234 30.980797 39.740234 30.966797 L 40.5625 30.953125 C 41.1865 30.953125 41.728156 31.352266 41.910156 31.947266 C 42.153156 32.740266 42.995203 33.185359 43.783203 32.943359 C 44.576203 32.701359 45.021297 31.862312 44.779297 31.070312 C 44.303297 29.517312 43.046 28.400406 41.5 28.066406 L 41.5 27.5 C 41.5 26.672 40.828 26 40 26 z M 14.5 32 A 1.50015 1.50015 0 1 0 14.5 35 L 23.5 35 A 1.50015 1.50015 0 1 0 23.5 32 L 14.5 32 z M 29.5 32 A 1.50015 1.50015 0 1 0 29.5 35 L 31.5 35 A 1.50015 1.50015 0 1 0 31.5 32 L 29.5 32 z" fill="#fff"/></svg>
