<?xml version="1.0" encoding="utf-8"?>
<svg xmlns="http://www.w3.org/2000/svg" viewBox="0 0 48 48" fill="#fff"><path d="M 15 4 C 13.125 4 11.528815 4.7571334 10.503906 5.9101562 C 9.4789977 7.0631791 9 8.5416668 9 10 C 9 11.458333 9.4789977 12.936821 10.503906 14.089844 C 11.528815 15.242867 13.125 16 15 16 C 16.161237 16 17.213922 15.707896 18.091797 15.212891 L 21.878906 19 L 15.439453 25.439453 A 1.50015 1.50015 0 1 0 17.560547 27.560547 L 29.908203 15.212891 C 30.786078 15.707896 31.838763 16 33 16 C 34.875 16 36.471185 15.242867 37.496094 14.089844 C 38.521003 12.936821 39 11.458333 39 10 C 39 8.5416668 38.521003 7.0631791 37.496094 5.9101562 C 36.471185 4.7571334 34.875 4 33 4 C 31.125 4 29.528815 4.7571334 28.503906 5.9101562 C 27.478997 7.0631791 27 8.5416668 27 10 C 27 11.062991 27.258065 12.135379 27.792969 13.085938 L 24 16.878906 L 20.207031 13.085938 C 20.741935 12.135379 21 11.062991 21 10 C 21 8.5416668 20.521003 7.0631791 19.496094 5.9101562 C 18.471185 4.7571334 16.875 4 15 4 z M 15 7 C 16.124999 7 16.778816 7.3678666 17.253906 7.9023438 C 17.728997 8.4368209 18 9.2083332 18 10 C 18 10.791667 17.728997 11.563179 17.253906 12.097656 C 16.778816 12.632133 16.124999 13 15 13 C 13.875001 13 13.221184 12.632133 12.746094 12.097656 C 12.271003 11.563179 12 10.791667 12 10 C 12 9.2083332 12.271003 8.4368209 12.746094 7.9023438 C 13.221184 7.3678666 13.875001 7 15 7 z M 33 7 C 34.124999 7 34.778816 7.3678666 35.253906 7.9023438 C 35.728997 8.4368209 36 9.2083332 36 10 C 36 10.791667 35.728997 11.563179 35.253906 12.097656 C 34.778816 12.632133 34.124999 13 33 13 C 31.875001 13 31.221184 12.632133 30.746094 12.097656 C 30.271003 11.563179 30 10.791667 30 10 C 30 9.2083332 30.271003 8.4368209 30.746094 7.9023438 C 31.221184 7.3678666 31.875001 7 33 7 z M 7 22 C 5.343 22 4 23.343 4 25 L 4 40 C 4 41.657 5.343 43 7 43 L 41 43 C 42.657 43 44 41.657 44 40 L 44 25 C 44 23.343 42.657 22 41 22 L 25.939453 22 L 22.939453 25 L 38 25 C 38 26.657 39.343 28 41 28 L 41 37 C 39.343 37 38 38.343 38 40 L 10 40 C 10 38.343 8.657 37 7 37 L 7 28 C 8.657 28 10 26.657 10 25 L 13.339844 25 C 13.499844 24.65 13.739297 24.319297 14.029297 24.029297 L 16.060547 22 L 7 22 z M 24 27 C 21.239 27 19 29.462 19 32.5 C 19 35.538 21.239 38 24 38 C 26.761 38 29 35.538 29 32.5 C 29 29.462 26.761 27 24 27 z M 24 30 C 25.084 30 26 31.145 26 32.5 C 26 33.855 25.084 35 24 35 C 22.916 35 22 33.855 22 32.5 C 22 31.145 22.916 30 24 30 z M 12.5 30.5 A 2 2 0 0 0 12.5 34.5 A 2 2 0 0 0 12.5 30.5 z M 35.5 30.5 A 2 2 0 0 0 35.5 34.5 A 2 2 0 0 0 35.5 30.5 z" fill="#fff"/></svg>
