<?xml version="1.0" encoding="utf-8"?>
<svg xmlns="http://www.w3.org/2000/svg" viewBox="0 0 48 48" fill="#55118e"><path d="M 7.4765625 5.9785156 A 1.50015 1.50015 0 0 0 6 7.5 L 6 16.5 C 6 23.937774 12.062226 30 19.5 30 L 22.080078 30 A 1.50015 1.50015 0 0 0 24.919922 30 L 29.5 30 C 29.795045 30 30 30.204955 30 30.5 L 30 35.5 C 30 37.414955 31.585045 39 33.5 39 L 38.5 39 C 40.414955 39 42 37.414955 42 35.5 L 42 31.5 C 42 24.062226 35.937774 18 28.5 18 L 24.919922 18 A 1.50015 1.50015 0 0 0 22.080078 18 L 18.5 18 C 18.204955 18 18 17.795045 18 17.5 L 18 7.5 A 1.50015 1.50015 0 1 0 15 7.5 L 15 17.5 C 15 19.414955 16.585045 21 18.5 21 L 22 21 L 22 27 L 19.5 27 C 13.683774 27 9 22.316226 9 16.5 L 9 7.5 A 1.50015 1.50015 0 0 0 7.4765625 5.9785156 z M 25 21 L 28.5 21 C 34.316226 21 39 25.683774 39 31.5 L 39 35.5 C 39 35.795045 38.795045 36 38.5 36 L 33.5 36 C 33.204955 36 33 35.795045 33 35.5 L 33 30.5 C 33 28.585045 31.414955 27 29.5 27 L 25 27 L 25 21 z M 35.5 41.017578 C 35.081375 41.017578 34.661812 41.234469 34.445312 41.667969 C 33.762313 43.036969 33 44.737 33 45.5 C 33 46.881 34.119 48 35.5 48 C 36.881 48 38 46.881 38 45.5 C 38 44.737 37.236734 43.036969 36.552734 41.667969 C 36.336734 41.234469 35.918625 41.017578 35.5 41.017578 z" fill="#55118e"/></svg>
