<?xml version="1.0" encoding="utf-8"?>
<svg xmlns="http://www.w3.org/2000/svg" viewBox="0 0 48 48" fill="#55118e"><path d="M 32.470703 3.9863281 A 1.50015 1.50015 0 0 0 31.439453 4.4394531 L 24 11.878906 L 18.560547 6.4394531 A 1.50015 1.50015 0 1 0 16.439453 8.5605469 L 16.824219 8.9453125 L 8.7636719 17.005859 C 5.0935731 20.675958 5.092849 26.668465 8.7597656 30.339844 L 7.7792969 29.361328 L 7.640625 29.5 C 5.4646171 31.676008 5.4646171 35.24782 7.640625 37.423828 L 8.046875 37.832031 L 5.4394531 40.439453 A 1.50015 1.50015 0 1 0 7.5605469 42.560547 L 10.167969 39.953125 L 10.574219 40.357422 C 12.750227 42.53343 16.323992 42.53343 18.5 40.357422 L 18.638672 40.21875 L 17.654297 39.236328 C 21.326124 42.908155 27.323221 42.908433 30.994141 39.236328 L 39.054688 31.175781 L 39.439453 31.560547 A 1.50015 1.50015 0 1 0 41.560547 29.439453 L 36.121094 24 L 43.560547 16.560547 A 1.50015 1.50015 0 1 0 41.439453 14.439453 L 34 21.878906 L 26.121094 14 L 33.560547 6.5605469 A 1.50015 1.50015 0 0 0 32.470703 3.9863281 z M 18.945312 11.066406 L 36.933594 29.054688 L 28.873047 37.115234 C 26.347967 39.64113 22.301563 39.641407 19.775391 37.115234 L 19.699219 37.037109 A 1.50015 1.50015 0 0 0 17.578125 37.037109 L 16.378906 38.236328 C 15.348914 39.26632 13.725305 39.26632 12.695312 38.236328 L 9.7617188 35.302734 C 8.7317267 34.272742 8.7317267 32.651086 9.7617188 31.621094 L 10.960938 30.421875 A 1.50015 1.50015 0 0 0 10.960938 28.300781 L 10.884766 28.222656 C 8.3588698 25.697576 8.3585925 21.653126 10.884766 19.126953 L 18.945312 11.066406 z M 18 19 A 2 2 0 0 0 18 23 A 2 2 0 0 0 18 19 z M 27 28 A 2 2 0 0 0 27 32 A 2 2 0 0 0 27 28 z" fill="#55118e"/></svg>
