<?xml version="1.0" encoding="utf-8"?>
<svg xmlns="http://www.w3.org/2000/svg" viewBox="0 0 48 48" fill="#55118e"><path d="M 14.5 4 C 12.032499 4 10 6.0324991 10 8.5 L 10 11.146484 L 8.1582031 14.830078 A 1.50015 1.50015 0 0 0 8 15.5 C 8 17.112358 8.7813803 18.562431 10 19.570312 L 10 39.5 C 10 41.981 12.019 44 14.5 44 L 29.166016 44 L 26.599609 41 L 14.5 41 C 13.673 41 13 40.327 13 39.5 L 13 20.916016 C 13.326384 20.967636 13.659663 21 14 21 C 15.846261 21 17.117728 20.261947 18 19.544922 C 18.882272 20.261947 20.153739 21 22 21 C 23.938338 21 25.205186 20.212926 26.076172 19.472656 C 26.245666 19.60226 26.214743 19.612563 26.417969 19.748047 C 27.295976 20.333385 28.5 21 30 21 C 30.340337 21 30.673616 20.967636 31 20.916016 L 31 22.349609 C 31.456 22.131609 31.961 22 32.5 22 C 33.039 22 33.544 22.131609 34 22.349609 L 34 19.570312 C 35.21862 18.562431 36 17.112358 36 15.5 A 1.50015 1.50015 0 0 0 35.841797 14.830078 L 34 11.146484 L 34 8.5 C 34 6.0324991 31.967501 4 29.5 4 L 14.5 4 z M 14.5 7 L 29.5 7 C 30.346499 7 31 7.6535009 31 8.5 L 31 10 L 13 10 L 13 8.5 C 13 7.6535009 13.653501 7 14.5 7 z M 12.427734 13 L 31.574219 13 L 32.908203 15.667969 C 32.775969 16.639299 31.542582 18 30 18 C 29.5 18 28.704024 17.666615 28.082031 17.251953 C 27.460039 16.837292 27.060547 16.439453 27.060547 16.439453 A 1.50015 1.50015 0 0 0 24.800781 16.599609 C 24.800781 16.599609 23.7 18 22 18 C 20.3 18 19.199219 16.599609 19.199219 16.599609 A 1.50015 1.50015 0 0 0 16.800781 16.599609 C 16.800781 16.599609 15.7 18 14 18 C 12.457834 18 11.226586 16.639253 11.09375 15.667969 L 12.427734 13 z M 22.484375 22.984375 A 1.50015 1.50015 0 0 0 21.439453 25.560547 L 21.878906 26 L 17.5 26 A 1.50015 1.50015 0 1 0 17.5 29 L 21.878906 29 L 21.439453 29.439453 A 1.50015 1.50015 0 1 0 23.560547 31.560547 L 26.431641 28.689453 A 1.50015 1.50015 0 0 0 26.423828 26.302734 L 23.560547 23.439453 A 1.50015 1.50015 0 0 0 22.484375 22.984375 z M 32.476562 23.978516 A 1.50015 1.50015 0 0 0 30.998047 25.5 L 30.998047 33.5 L 30.998047 37.417969 L 27.638672 34.525391 C 27.100672 33.893391 26.155391 33.818375 25.525391 34.359375 C 24.895391 34.897375 24.820375 35.845609 25.359375 36.474609 L 31.859375 44.074219 C 31.871909 44.088954 31.887421 44.099156 31.900391 44.113281 C 32.73757 45.252555 34.07703 46 35.599609 46 L 39.998047 46 C 43.312047 46 45.998047 43.314 45.998047 40 L 45.998047 33 L 45.998047 32.5 A 1.50015 1.50015 0 0 0 44.476562 30.978516 A 1.50015 1.50015 0 0 0 42.998047 32.5 L 42.998047 33 L 41.998047 33 L 41.998047 32 A 1.50015 1.50015 0 0 0 40.476562 30.478516 A 1.50015 1.50015 0 0 0 38.998047 32 L 38.998047 33 L 37.998047 33 L 37.998047 31.5 A 1.50015 1.50015 0 0 0 36.476562 29.978516 A 1.50015 1.50015 0 0 0 34.998047 31.5 L 34.998047 33 L 33.998047 33 L 33.998047 25.5 A 1.50015 1.50015 0 0 0 32.476562 23.978516 z" fill="#55118e"/></svg>
