<svg width="30" height="30" viewBox="0 0 30 30" fill="none" xmlns="http://www.w3.org/2000/svg">
<path d="M15 30.0008C13.065 30.001 11.1483 29.6275 9.35499 28.9008C7.04207 27.9633 5.00001 26.4629 3.4143 24.5358C1.82859 22.6087 0.749474 20.3159 0.274986 17.8658C-0.278842 15.009 0.00773311 12.0529 1.09999 9.35575C2.0374 7.04284 3.53782 5.00078 5.46495 3.41507C7.39208 1.82936 9.68485 0.750243 12.135 0.275754C15.1896 -0.317528 18.3531 0.0517906 21.189 1.33275C21.6576 1.64207 22.0603 2.04107 22.374 2.50675C22.8899 3.22985 23.1599 4.0996 23.144 4.98775V5.02075C23.105 5.64807 22.9165 6.25696 22.5943 6.79658C22.272 7.3362 21.8253 7.7909 21.2915 8.12269C20.7577 8.45449 20.1522 8.65377 19.5257 8.70388C18.8992 8.75399 18.2698 8.65348 17.69 8.41075C16.1508 7.78342 14.4406 7.71435 12.8559 8.21552C11.2711 8.71668 9.9116 9.75649 9.01299 11.1548C8.20218 12.2299 7.76026 13.5382 7.75299 14.8848C7.7481 16.2813 8.13772 17.6509 8.87699 18.8358C9.34993 19.6141 9.97631 20.2881 10.718 20.8168C11.467 21.353 12.3151 21.7351 13.213 21.9408C13.7377 22.0618 14.2745 22.1229 14.813 22.1228H15C16.7127 22.1227 18.368 21.5053 19.6625 20.3839C20.9569 19.2624 21.8039 17.712 22.048 16.0168C22.1184 15.5228 22.2712 15.0442 22.5 14.6008C22.7155 14.1802 23.0032 13.8008 23.35 13.4798C23.6919 13.163 24.0896 12.9124 24.523 12.7408C24.9742 12.5629 25.455 12.4723 25.94 12.4738C26.1199 12.474 26.2996 12.4857 26.478 12.5088C27.1575 12.5916 27.8031 12.8525 28.3492 13.2652C28.8954 13.6779 29.3228 14.2277 29.588 14.8588C29.7434 15.2272 29.8445 15.6163 29.888 16.0138C29.8866 16.1932 29.8726 16.3723 29.846 16.5498C29.867 16.4188 29.885 16.2838 29.9 16.1498C29.9185 16.3747 29.9185 16.6008 29.9 16.8258C29.5175 19.9714 28.1475 22.9147 25.9868 25.2327C23.8261 27.5506 20.9861 29.1237 17.875 29.7258C16.9276 29.909 15.9649 30.0011 15 30.0008Z" fill="white"/>
</svg>
