<svg width="50" height="50" viewBox="0 0 50 50" fill="none" xmlns="http://www.w3.org/2000/svg">
<path d="M25 50C38.8071 50 50 38.8071 50 25C50 11.1929 38.8071 0 25 0C11.1929 0 0 11.1929 0 25C0 38.8071 11.1929 50 25 50Z" fill="#FFA800"/>
<path d="M21.284 11.1502C21.1539 11.1499 21.0251 11.1754 20.9049 11.2252L17.9252 12.4144L15.2766 11.2387C15.1224 11.1692 14.9533 11.1396 14.7847 11.1525C14.6162 11.1654 14.4535 11.2204 14.3117 11.3124C14.1699 11.4045 14.0535 11.5306 13.9731 11.6794C13.8927 11.8281 13.8509 11.9946 13.8516 12.1637V33.1096C13.8534 34.0947 14.2455 35.0389 14.942 35.7354C15.6385 36.432 16.5827 36.8241 17.5678 36.8258H31.757C31.8583 36.8258 31.9597 36.8191 32.0604 36.8123C31.8765 36.5112 31.7295 36.1891 31.6225 35.8529C31.512 35.513 31.484 35.1517 31.5408 34.7988H17.5678C17.1198 34.7988 16.6901 34.6208 16.3733 34.3041C16.0566 33.9873 15.8786 33.5576 15.8786 33.1096V13.7252L17.4941 14.4407C17.6181 14.4965 17.7521 14.5265 17.888 14.5289C18.0238 14.5313 18.1588 14.5062 18.2847 14.4549L21.284 13.2576L24.2833 14.4542C24.4033 14.5044 24.532 14.5302 24.662 14.5302C24.7921 14.5302 24.9208 14.5044 25.0408 14.4542L28.0408 13.2576L31.0401 14.4542C31.166 14.5055 31.3009 14.5307 31.4368 14.5282C31.5727 14.5258 31.7067 14.4958 31.8306 14.44L33.4462 13.7252V26.1103C33.5695 26.0232 33.6982 25.9438 33.8313 25.8725C33.9179 25.4544 34.1164 25.0678 34.4055 24.7537C34.6947 24.4397 35.0637 24.2101 35.4732 24.0894V12.1637C35.4739 11.9946 35.4321 11.8281 35.3517 11.6794C35.2713 11.5306 35.1549 11.4045 35.0131 11.3124C34.8713 11.2204 34.7086 11.1654 34.54 11.1525C34.3715 11.1396 34.2023 11.1692 34.0482 11.2387L31.3995 12.413L28.4198 11.2238C28.2999 11.1737 28.1711 11.1478 28.0411 11.1478C27.9111 11.1478 27.7823 11.1737 27.6624 11.2238L24.6624 12.4211L21.6631 11.2238C21.5428 11.1745 21.414 11.1494 21.284 11.1502ZM18.9191 19.2583C18.6503 19.2583 18.3925 19.3651 18.2025 19.5551C18.0124 19.7452 17.9056 20.003 17.9056 20.2718C17.9056 20.5406 18.0124 20.7984 18.2025 20.9884C18.3925 21.1785 18.6503 21.2853 18.9191 21.2853H30.4056C30.6744 21.2853 30.9322 21.1785 31.1223 20.9884C31.3124 20.7984 31.4191 20.5406 31.4191 20.2718C31.4191 20.003 31.3124 19.7452 31.1223 19.5551C30.9322 19.3651 30.6744 19.2583 30.4056 19.2583H18.9191ZM18.9191 25.3394C18.6503 25.3394 18.3925 25.4461 18.2025 25.6362C18.0124 25.8263 17.9056 26.0841 17.9056 26.3529C17.9056 26.6217 18.0124 26.8795 18.2025 27.0695C18.3925 27.2596 18.6503 27.3664 18.9191 27.3664H25.0002C25.269 27.3664 25.5268 27.2596 25.7169 27.0695C25.907 26.8795 26.0137 26.6217 26.0137 26.3529C26.0137 26.0841 25.907 25.8263 25.7169 25.6362C25.5268 25.4461 25.269 25.3394 25.0002 25.3394H18.9191ZM29.0543 25.3394C28.7855 25.3394 28.5277 25.4461 28.3376 25.6362C28.1475 25.8263 28.0408 26.0841 28.0408 26.3529C28.0408 26.6217 28.1475 26.8795 28.3376 27.0695C28.5277 27.2596 28.7855 27.3664 29.0543 27.3664H30.4056C30.6744 27.3664 30.9322 27.2596 31.1223 27.0695C31.3124 26.8795 31.4191 26.6217 31.4191 26.3529C31.4191 26.0841 31.3124 25.8263 31.1223 25.6362C30.9322 25.4461 30.6744 25.3394 30.4056 25.3394H29.0543ZM36.1489 25.3394C35.8801 25.3394 35.6223 25.4461 35.4322 25.6362C35.2421 25.8263 35.1354 26.0841 35.1354 26.3529V26.7975C34.385 27.0037 33.7349 27.4752 33.3059 28.1244C32.8768 28.7736 32.6979 29.5565 32.8024 30.3277C32.9069 31.0988 33.2877 31.8058 33.8741 32.3175C34.4605 32.8291 35.2126 33.1106 35.9908 33.1096H36.9833C37.2947 33.1155 37.5915 33.243 37.8102 33.4648C38.0288 33.6866 38.152 33.9851 38.1534 34.2966C38.1548 34.608 38.0343 34.9077 37.8177 35.1315C37.6011 35.3553 37.3055 35.4854 36.9941 35.4941L35.7509 35.5062C35.5482 35.5069 35.3506 35.4428 35.187 35.3232C35.0234 35.2036 34.9023 35.0347 34.8414 34.8414C34.7562 34.5907 34.5763 34.3832 34.3401 34.2635C34.1039 34.1438 33.8303 34.1212 33.5777 34.2007C33.3251 34.2801 33.1136 34.4553 32.9885 34.6887C32.8634 34.9221 32.8347 35.1952 32.9083 35.4495C33.0667 35.9532 33.357 36.4054 33.7491 36.7591C34.1412 37.1127 34.6208 37.3551 35.1381 37.461V37.8394C35.1381 38.1082 35.2448 38.3659 35.4349 38.556C35.625 38.7461 35.8828 38.8529 36.1516 38.8529C36.4204 38.8529 36.6782 38.7461 36.8682 38.556C37.0583 38.3659 37.1651 38.1082 37.1651 37.8394V37.5056C38.0043 37.4637 38.7937 37.0949 39.3643 36.478C39.9348 35.8612 40.241 35.0454 40.2173 34.2055C40.1937 33.3656 39.842 32.5683 39.2376 31.9846C38.6332 31.4009 37.8242 31.0771 36.984 31.0826H35.9908C35.6789 31.0777 35.3812 30.951 35.1616 30.7294C34.942 30.5079 34.8177 30.2092 34.8155 29.8973C34.8133 29.5853 34.9333 29.2849 35.1498 29.0603C35.3663 28.8357 35.6621 28.7047 35.9739 28.6954L36.5293 28.686C36.7332 28.6848 36.9321 28.7495 37.0962 28.8706C37.2603 28.9916 37.381 29.1624 37.4401 29.3576C37.479 29.4849 37.5426 29.6033 37.6273 29.706C37.7119 29.8087 37.816 29.8937 37.9335 29.9562C38.051 30.0187 38.1797 30.0574 38.3122 30.0702C38.4446 30.0829 38.5783 30.0695 38.7056 30.0306C38.8329 29.9917 38.9513 29.9281 39.054 29.8434C39.1567 29.7588 39.2417 29.6547 39.3042 29.5372C39.3667 29.4197 39.4054 29.291 39.4182 29.1585C39.431 29.026 39.4175 28.8923 39.3786 28.765C39.2244 28.2599 38.9375 27.8053 38.5478 27.4488C38.1581 27.0922 37.6799 26.8468 37.1631 26.738V26.3529C37.1631 26.2197 37.1368 26.0879 37.0858 25.9649C37.0349 25.8418 36.9602 25.7301 36.866 25.636C36.7718 25.5418 36.66 25.4672 36.5369 25.4163C36.4139 25.3654 36.282 25.3393 36.1489 25.3394ZM18.9191 29.3934C18.6503 29.3934 18.3925 29.5002 18.2025 29.6903C18.0124 29.8803 17.9056 30.1381 17.9056 30.4069C17.9056 30.6757 18.0124 30.9335 18.2025 31.1236C18.3925 31.3137 18.6503 31.4204 18.9191 31.4204H25.0002C25.269 31.4204 25.5268 31.3137 25.7169 31.1236C25.907 30.9335 26.0137 30.6757 26.0137 30.4069C26.0137 30.1381 25.907 29.8803 25.7169 29.6903C25.5268 29.5002 25.269 29.3934 25.0002 29.3934H18.9191ZM29.0543 29.3934C28.7855 29.3934 28.5277 29.5002 28.3376 29.6903C28.1475 29.8803 28.0408 30.1381 28.0408 30.4069C28.0408 30.6757 28.1475 30.9335 28.3376 31.1236C28.5277 31.3137 28.7855 31.4204 29.0543 31.4204H30.4056C30.6744 31.4204 30.9322 31.3137 31.1223 31.1236C31.3124 30.9335 31.4191 30.6757 31.4191 30.4069C31.4191 30.1381 31.3124 29.8803 31.1223 29.6903C30.9322 29.5002 30.6744 29.3934 30.4056 29.3934H29.0543Z" fill="white"/>
</svg>
