<svg width="50" height="50" viewBox="0 0 50 50" fill="none" xmlns="http://www.w3.org/2000/svg">
<path d="M25 50C38.8071 50 50 38.8071 50 25C50 11.1929 38.8071 0 25 0C11.1929 0 0 11.1929 0 25C0 38.8071 11.1929 50 25 50Z" fill="#14C6E8"/>
<path d="M25.0001 11.4865C22.3274 11.4865 19.7147 12.279 17.4924 13.7639C15.2701 15.2488 13.538 17.3593 12.5152 19.8286C11.4924 22.2978 11.2248 25.015 11.7462 27.6363C12.2677 30.2577 13.5547 32.6656 15.4446 34.5555C17.3345 36.4454 19.7424 37.7324 22.3637 38.2538C24.9851 38.7752 27.7022 38.5076 30.1715 37.4848C32.6408 36.462 34.7513 34.73 36.2362 32.5077C37.721 30.2854 38.5136 27.6727 38.5136 25C38.5095 21.4172 37.0844 17.9824 34.551 15.449C32.0177 12.9156 28.5828 11.4906 25.0001 11.4865ZM25.0001 13.5135C27.2719 13.5135 29.4927 14.1871 31.3816 15.4493C33.2706 16.7115 34.7428 18.5054 35.6122 20.6043C36.4816 22.7032 36.7091 25.0127 36.2659 27.2409C35.8227 29.469 34.7287 31.5157 33.1223 33.1221C31.5158 34.7286 29.4692 35.8225 27.241 36.2657C25.0128 36.709 22.7033 36.4815 20.6044 35.6121C18.5055 34.7427 16.7116 33.2705 15.4494 31.3815C14.1873 29.4926 13.5136 27.2718 13.5136 25C13.5116 23.491 13.8073 21.9964 14.3838 20.6019C14.9603 19.2073 15.8063 17.9403 16.8734 16.8732C17.9404 15.8062 19.2075 14.9602 20.602 14.3837C21.9965 13.8071 23.4911 13.5114 25.0001 13.5135ZM25.0001 14.527C24.7996 14.527 24.6037 14.5864 24.437 14.6978C24.2703 14.8092 24.1404 14.9675 24.0637 15.1526C23.987 15.3378 23.9669 15.5416 24.0061 15.7382C24.0452 15.9348 24.1417 16.1154 24.2834 16.2572C24.4252 16.3989 24.6058 16.4954 24.8024 16.5345C24.999 16.5737 25.2027 16.5536 25.3879 16.4769C25.5731 16.4002 25.7314 16.2703 25.8428 16.1036C25.9542 15.9369 26.0136 15.741 26.0136 15.5405C26.0136 15.2717 25.9068 15.0139 25.7168 14.8238C25.5267 14.6338 25.2689 14.527 25.0001 14.527ZM18.3109 17.2973C18.1104 17.2973 17.9145 17.3567 17.7478 17.4681C17.5812 17.5794 17.4512 17.7377 17.3745 17.9229C17.2978 18.1081 17.2778 18.3119 17.3169 18.5085C17.356 18.7051 17.4525 18.8857 17.5942 19.0274C17.736 19.1692 17.9166 19.2657 18.1132 19.3048C18.3098 19.3439 18.5136 19.3238 18.6988 19.2471C18.884 19.1704 19.0422 19.0405 19.1536 18.8739C19.265 18.7072 19.3244 18.5112 19.3244 18.3108C19.3244 18.042 19.2176 17.7842 19.0276 17.5941C18.8375 17.404 18.5797 17.2973 18.3109 17.2973ZM31.6893 17.2973C31.4888 17.2973 31.2929 17.3567 31.1262 17.4681C30.9595 17.5794 30.8296 17.7377 30.7529 17.9229C30.6762 18.1081 30.6561 18.3119 30.6952 18.5085C30.7343 18.7051 30.8309 18.8857 30.9726 19.0274C31.1144 19.1692 31.2949 19.2657 31.4916 19.3048C31.6882 19.3439 31.8919 19.3238 32.0771 19.2471C32.2623 19.1704 32.4206 19.0405 32.532 18.8739C32.6434 18.7072 32.7028 18.5112 32.7028 18.3108C32.7028 18.042 32.596 17.7842 32.4059 17.5941C32.2159 17.404 31.9581 17.2973 31.6893 17.2973ZM32.0947 21.7669C30.5474 21.7405 25.0873 23.5 24.4839 23.7506C24.3197 23.8186 24.1706 23.9182 24.0449 24.0437C23.9192 24.1693 23.8195 24.3184 23.7515 24.4825C23.6834 24.6466 23.6484 24.8225 23.6483 25.0001C23.6483 25.1778 23.6832 25.3537 23.7511 25.5179C23.819 25.682 23.9186 25.8312 24.0442 25.9569C24.1698 26.0825 24.3189 26.1822 24.483 26.2503C24.6471 26.3183 24.823 26.3534 25.0006 26.3534C25.1783 26.3535 25.3542 26.3186 25.5183 26.2506C26.2082 25.9648 32.7771 22.5885 32.4913 21.9C32.4548 21.8115 32.3143 21.7716 32.0947 21.7682V21.7669ZM15.5406 23.9865C15.3402 23.9865 15.1442 24.0459 14.9776 24.1573C14.8109 24.2686 14.681 24.4269 14.6043 24.6121C14.5276 24.7973 14.5075 25.0011 14.5466 25.1977C14.5857 25.3943 14.6822 25.5749 14.824 25.7166C14.9657 25.8584 15.1463 25.9549 15.3429 25.994C15.5395 26.0331 15.7433 26.013 15.9285 25.9363C16.1137 25.8596 16.272 25.7297 16.3833 25.563C16.4947 25.3964 16.5541 25.2004 16.5541 25C16.5541 24.7312 16.4474 24.4734 16.2573 24.2833C16.0672 24.0932 15.8094 23.9865 15.5406 23.9865ZM34.4595 23.9865C34.2591 23.9865 34.0631 24.0459 33.8965 24.1573C33.7298 24.2686 33.5999 24.4269 33.5232 24.6121C33.4465 24.7973 33.4264 25.0011 33.4655 25.1977C33.5046 25.3943 33.6011 25.5749 33.7429 25.7166C33.8846 25.8584 34.0652 25.9549 34.2618 25.994C34.4584 26.0331 34.6622 26.013 34.8474 25.9363C35.0326 25.8596 35.1909 25.7297 35.3023 25.563C35.4136 25.3964 35.4731 25.2004 35.4731 25C35.4731 24.7312 35.3663 24.4734 35.1762 24.2833C34.9861 24.0932 34.7283 23.9865 34.4595 23.9865ZM18.3109 30.6756C18.1104 30.6756 17.9145 30.7351 17.7478 30.8464C17.5812 30.9578 17.4512 31.1161 17.3745 31.3013C17.2978 31.4865 17.2778 31.6903 17.3169 31.8869C17.356 32.0835 17.4525 32.2641 17.5942 32.4058C17.736 32.5476 17.9166 32.6441 18.1132 32.6832C18.3098 32.7223 18.5136 32.7022 18.6988 32.6255C18.884 32.5488 19.0422 32.4189 19.1536 32.2522C19.265 32.0856 19.3244 31.8896 19.3244 31.6892C19.3244 31.4204 19.2176 31.1626 19.0276 30.9725C18.8375 30.7824 18.5797 30.6756 18.3109 30.6756ZM31.6893 30.6756C31.4888 30.6756 31.2929 30.7351 31.1262 30.8464C30.9595 30.9578 30.8296 31.1161 30.7529 31.3013C30.6762 31.4865 30.6561 31.6903 30.6952 31.8869C30.7343 32.0835 30.8309 32.2641 30.9726 32.4058C31.1144 32.5476 31.2949 32.6441 31.4916 32.6832C31.6882 32.7223 31.8919 32.7022 32.0771 32.6255C32.2623 32.5488 32.4206 32.4189 32.532 32.2522C32.6434 32.0856 32.7028 31.8896 32.7028 31.6892C32.7028 31.4204 32.596 31.1626 32.4059 30.9725C32.2159 30.7824 31.9581 30.6756 31.6893 30.6756Z" fill="white"/>
</svg>
