<svg width="49" height="12" viewBox="0 0 49 12" fill="none" xmlns="http://www.w3.org/2000/svg">
<path d="M0.602 7.15073C0.602 9.58673 2.156 11.1267 4.34 11.1267C6.244 11.1267 7.49 10.0627 7.882 8.53673H6.51C6.23 9.50273 5.474 10.0487 4.34 10.0487C2.94 10.0487 1.904 9.05473 1.904 7.15073C1.904 5.27473 2.94 4.28073 4.34 4.28073C5.474 4.28073 6.244 4.86873 6.51 5.79273H7.882C7.49 4.18273 6.244 3.20273 4.34 3.20273C2.156 3.20273 0.602 4.74273 0.602 7.15073ZM9.10591 7.13673C9.10591 9.51673 10.6879 11.1267 12.7319 11.1267C14.1459 11.1267 15.1399 10.3987 15.6019 9.57273V11.0007H16.8899V3.32873H15.6019V4.72873C15.1539 3.93073 14.1739 3.20273 12.7459 3.20273C10.6879 3.20273 9.10591 4.74273 9.10591 7.13673ZM15.6019 7.15073C15.6019 8.95673 14.3979 10.0067 12.9979 10.0067C11.5979 10.0067 10.4079 8.94273 10.4079 7.13673C10.4079 5.33073 11.5979 4.30873 12.9979 4.30873C14.3979 4.30873 15.6019 5.37273 15.6019 7.15073ZM24.5588 8.91473C24.5028 6.17073 20.0508 7.16473 20.0508 5.34473C20.0508 4.72873 20.6108 4.28073 21.5488 4.28073C22.5708 4.28073 23.1588 4.84073 23.2148 5.61073H24.4888C24.4048 4.11273 23.2848 3.20273 21.5908 3.20273C19.8828 3.20273 18.7768 4.16873 18.7768 5.34473C18.7768 8.20073 23.3128 7.20673 23.3128 8.91473C23.3128 9.54473 22.7528 10.0487 21.7448 10.0487C20.6668 10.0487 20.0088 9.48873 19.9388 8.74673H18.6228C18.7068 10.1467 19.9668 11.1267 21.7588 11.1267C23.4528 11.1267 24.5588 10.1747 24.5588 8.91473ZM26.3573 11.0007H27.6313V6.75873C27.6313 5.10673 28.5273 4.29473 29.8293 4.29473C31.1173 4.29473 31.9713 5.09273 31.9713 6.66073V11.0007H33.2313V6.47873C33.2313 4.28073 31.8733 3.18873 30.1653 3.18873C29.0873 3.18873 28.1353 3.62273 27.6313 4.43473V0.640732H26.3573V11.0007ZM35.1024 11.0007H37.4964V1.17273H35.1024V11.0007ZM45.6293 1.17273V7.26273L41.6253 1.17273H39.2313V11.0007H41.6253V4.93873L45.6293 11.0007H48.0233V1.17273H45.6293Z" fill="white"/>
</svg>
