<svg width="50" height="50" viewBox="0 0 50 50" fill="none" xmlns="http://www.w3.org/2000/svg">
<path d="M25 50C38.8071 50 50 38.8071 50 25C50 11.1929 38.8071 0 25 0C11.1929 0 0 11.1929 0 25C0 38.8071 11.1929 50 25 50Z" fill="#51A669"/>
<path d="M26.0135 12.8379C25.9308 12.838 25.8484 12.8482 25.7682 12.8683L20.3628 14.2196C20.1434 14.2744 19.9487 14.4008 19.8095 14.579C19.6703 14.7571 19.5946 14.9767 19.5945 15.2028V15.5406H17.9054C16.3821 15.5406 14.9213 16.1457 13.8443 17.2228C12.7672 18.2998 12.1621 19.7606 12.1621 21.2838C12.1621 22.807 12.7672 24.2679 13.8443 25.3449C14.9213 26.422 16.3821 27.0271 17.9054 27.0271H32.7702C33.7558 27.0271 34.7011 27.4186 35.398 28.1155C36.0949 28.8125 36.4864 29.7577 36.4864 30.7433C36.4864 31.7289 36.0949 32.6741 35.398 33.3711C34.7011 34.068 33.7558 34.4595 32.7702 34.4595H14.527C14.2582 34.4595 14.0004 34.5663 13.8103 34.7564C13.6202 34.9464 13.5135 35.2042 13.5135 35.473C13.5135 35.7418 13.6202 35.9996 13.8103 36.1897C14.0004 36.3798 14.2582 36.4865 14.527 36.4865H32.7702C34.2934 36.4865 35.7542 35.8815 36.8313 34.8044C37.9084 33.7273 38.5135 32.2665 38.5135 30.7433C38.5135 29.2201 37.9084 27.7593 36.8313 26.6822C35.7542 25.6051 34.2934 25.0001 32.7702 25.0001H17.9054C16.9198 25.0001 15.9745 24.6085 15.2776 23.9116C14.5807 23.2147 14.1891 22.2694 14.1891 21.2838C14.1891 20.2982 14.5807 19.353 15.2776 18.6561C15.9745 17.9591 16.9198 17.5676 17.9054 17.5676H19.5945V17.9055C19.5946 18.1315 19.6703 18.3511 19.8095 18.5292C19.9487 18.7074 20.1434 18.8339 20.3628 18.8886L25.7682 20.2399C25.8484 20.26 25.9308 20.2702 26.0135 20.2703H30.0675C30.3363 20.2703 30.5941 20.1635 30.7842 19.9735C30.9742 19.7834 31.081 19.5256 31.081 19.2568V17.5676H36.8243C37.0931 17.5676 37.3509 17.4608 37.5409 17.2708C37.731 17.0807 37.8378 16.8229 37.8378 16.5541C37.8378 16.2853 37.731 16.0275 37.5409 15.8374C37.3509 15.6474 37.0931 15.5406 36.8243 15.5406H31.081V13.8514C31.081 13.5826 30.9742 13.3248 30.7842 13.1347C30.5941 12.9447 30.3363 12.8379 30.0675 12.8379H26.0135ZM26.1391 14.8649H29.054V16.3879C29.0361 16.4966 29.0361 16.6075 29.054 16.7163V18.2433H26.1391L21.6216 17.1136V16.7203C21.6394 16.6116 21.6394 16.5007 21.6216 16.3919V15.9946L26.1391 14.8649Z" fill="white"/>
</svg>
