<svg width="50" height="50" viewBox="0 0 50 50" fill="none" xmlns="http://www.w3.org/2000/svg">
<path d="M25 50C38.8071 50 50 38.8071 50 25C50 11.1929 38.8071 0 25 0C11.1929 0 0 11.1929 0 25C0 38.8071 11.1929 50 25 50Z" fill="#EA3ABA"/>
<path d="M15.2026 11.8243C14.5767 11.8284 13.9775 12.0789 13.5349 12.5215C13.0923 12.9641 12.8418 13.5633 12.8378 14.1892V16.021L11.5587 19.2183C11.5021 19.3598 11.4782 19.5123 11.4887 19.6644C11.4993 19.8165 11.544 19.9642 11.6195 20.0966C11.7703 21.1489 12.1899 22.1445 12.8378 22.9872V34.4595C12.8419 35.4438 13.2347 36.3867 13.9307 37.0827C14.6268 37.7787 15.5696 38.1716 16.554 38.1757H33.4459C34.4302 38.1716 35.3731 37.7787 36.0691 37.0827C36.7652 36.3867 37.158 35.4438 37.1621 34.4595V22.9899C37.8125 22.1445 38.2331 21.1452 38.383 20.0892C38.457 19.9575 38.5006 19.811 38.5107 19.6603C38.5207 19.5096 38.497 19.3586 38.4411 19.2183L37.1621 16.021V14.1892C37.158 13.5633 36.9076 12.9641 36.4649 12.5215C36.0223 12.0789 35.4232 11.8284 34.7972 11.8243H15.2026ZM15.2026 13.8514H34.7972C34.8422 13.8492 34.887 13.8565 34.929 13.8728C34.9709 13.889 35.009 13.9138 35.0408 13.9456C35.0726 13.9774 35.0974 14.0155 35.1137 14.0575C35.1299 14.0994 35.1372 14.1443 35.1351 14.1892V16.2162C35.135 16.3451 35.1595 16.4729 35.2074 16.5926L36.4364 19.6622C36.3634 20.4244 36.075 21.1501 35.6047 21.7543C35.1345 22.3586 34.5019 22.8165 33.781 23.0745C33.06 23.3325 32.2806 23.3799 31.5337 23.2111C30.7868 23.0424 30.1034 22.6645 29.5634 22.1216C29.3799 21.9376 29.1327 21.8312 28.8729 21.8243C28.6131 21.8174 28.3606 21.9105 28.1675 22.0845C27.3013 22.8733 26.1718 23.3105 25.0003 23.3105C23.8287 23.3105 22.6993 22.8733 21.833 22.0845C21.64 21.9105 21.3874 21.8174 21.1276 21.8243C20.8678 21.8312 20.6206 21.9376 20.4371 22.1216C19.8971 22.6647 19.2137 23.0428 18.4667 23.2116C17.7197 23.3805 16.9401 23.3332 16.2191 23.0752C15.498 22.8172 14.8653 22.3592 14.3951 21.7548C13.9248 21.1504 13.6363 20.4245 13.5634 19.6622L14.7918 16.5899C14.8395 16.4711 14.8643 16.3443 14.8648 16.2162V14.1892C14.8627 14.1443 14.87 14.0994 14.8862 14.0575C14.9024 14.0155 14.9272 13.9774 14.959 13.9456C14.9908 13.9138 15.0289 13.889 15.0709 13.8728C15.1128 13.8565 15.1577 13.8492 15.2026 13.8514ZM17.9053 15.2027C17.7049 15.2027 17.5089 15.2622 17.3423 15.3735C17.1756 15.4849 17.0457 15.6432 16.969 15.8284C16.8923 16.0136 16.8722 16.2174 16.9113 16.414C16.9504 16.6106 17.0469 16.7912 17.1887 16.9329C17.3304 17.0746 17.511 17.1712 17.7076 17.2103C17.9042 17.2494 18.108 17.2293 18.2932 17.1526C18.4784 17.0759 18.6367 16.946 18.748 16.7793C18.8594 16.6126 18.9188 16.4167 18.9188 16.2162C18.9188 15.9474 18.8121 15.6896 18.622 15.4996C18.4319 15.3095 18.1741 15.2027 17.9053 15.2027ZM21.2837 15.2027C21.0833 15.2027 20.8873 15.2622 20.7206 15.3735C20.554 15.4849 20.4241 15.6432 20.3473 15.8284C20.2706 16.0136 20.2506 16.2174 20.2897 16.414C20.3288 16.6106 20.4253 16.7912 20.567 16.9329C20.7088 17.0746 20.8894 17.1712 21.086 17.2103C21.2826 17.2494 21.4864 17.2293 21.6716 17.1526C21.8568 17.0759 22.0151 16.946 22.1264 16.7793C22.2378 16.6126 22.2972 16.4167 22.2972 16.2162C22.2972 15.9474 22.1904 15.6896 22.0004 15.4996C21.8103 15.3095 21.5525 15.2027 21.2837 15.2027ZM21.1729 24.0237C22.28 24.8506 23.6183 25.3102 24.9999 25.3378C26.3815 25.3102 27.7198 24.8506 28.827 24.0237C29.8509 24.8474 31.1185 25.3095 32.4324 25.3378C33.3725 25.3388 34.2992 25.1148 35.1351 24.6845V34.4595C35.1371 34.6818 35.0947 34.9024 35.0105 35.1082C34.9263 35.3141 34.802 35.5011 34.6447 35.6583C34.4875 35.8156 34.3005 35.9399 34.0946 36.0241C33.8888 36.1083 33.6683 36.1506 33.4459 36.1487H32.4324V28.3784C32.4324 28.1096 32.3256 27.8518 32.1355 27.6617C31.9454 27.4717 31.6877 27.3649 31.4188 27.3649H18.581C18.3122 27.3649 18.0544 27.4717 17.8643 27.6617C17.6743 27.8518 17.5675 28.1096 17.5675 28.3784V36.1487H16.554C16.3316 36.1506 16.1111 36.1083 15.9052 36.0241C15.6994 35.9399 15.5124 35.8156 15.3551 35.6583C15.1979 35.5011 15.0735 35.3141 14.9893 35.1082C14.9051 34.9024 14.8628 34.6818 14.8648 34.4595V24.6845C15.7006 25.1149 16.6274 25.3389 17.5675 25.3378C18.8814 25.3095 20.149 24.8474 21.1729 24.0237ZM19.5945 29.3919H23.9864V36.1487H19.5945V29.3919ZM26.0134 29.3919H30.4053V36.1487H26.0134V29.3919Z" fill="white"/>
</svg>
